<svg width="236" height="16" viewBox="0 0 236 16" fill="none" xmlns="http://www.w3.org/2000/svg">
<path d="M5.64209 5.4541L3.73047 11H2.57471L4.98291 4.60156H5.72119L5.64209 5.4541ZM7.2417 11L5.32568 5.4541L5.24219 4.60156H5.98486L8.40186 11H7.2417ZM7.14941 8.62695V9.50146H3.66895V8.62695H7.14941ZM10.4176 4.60156V11H9.31461V4.60156H10.4176Z" fill="#6A4CFF"/>
<rect x="0.4" y="1.4" width="13.2" height="13.2" rx="6.6" stroke="#6A4CFF" stroke-width="0.8"/>
<path d="M20.6035 7.9043H19.5898V7.18359H20.5625C20.9922 7.18359 21.3398 7.12305 21.6055 7.00195C21.8711 6.88086 22.0645 6.71289 22.1855 6.49805C22.3066 6.2832 22.3672 6.03516 22.3672 5.75391C22.3672 5.48438 22.3008 5.23828 22.168 5.01562C22.0352 4.78906 21.8301 4.60938 21.5527 4.47656C21.2754 4.33984 20.918 4.27148 20.4805 4.27148C20.1523 4.27148 19.8555 4.33398 19.5898 4.45898C19.3242 4.58008 19.1133 4.75 18.957 4.96875C18.8008 5.18359 18.7227 5.43164 18.7227 5.71289H17.5918C17.5918 5.34961 17.668 5.02344 17.8203 4.73438C17.9727 4.44141 18.1816 4.19336 18.4473 3.99023C18.7129 3.7832 19.0195 3.625 19.3672 3.51562C19.7188 3.40625 20.0898 3.35156 20.4805 3.35156C20.9375 3.35156 21.3516 3.4043 21.7227 3.50977C22.0938 3.61133 22.4121 3.76367 22.6777 3.9668C22.9434 4.16992 23.1465 4.42188 23.2871 4.72266C23.4277 5.02344 23.498 5.37305 23.498 5.77148C23.498 6.06445 23.4297 6.33984 23.293 6.59766C23.1562 6.85547 22.9609 7.08203 22.707 7.27734C22.4531 7.47266 22.1484 7.62695 21.793 7.74023C21.4375 7.84961 21.041 7.9043 20.6035 7.9043ZM19.5898 7.40625H20.6035C21.084 7.40625 21.5117 7.45508 21.8867 7.55273C22.2617 7.65039 22.5781 7.79297 22.8359 7.98047C23.0938 8.16797 23.2891 8.40039 23.4219 8.67773C23.5586 8.95117 23.627 9.26562 23.627 9.62109C23.627 10.0195 23.5488 10.373 23.3926 10.6816C23.2402 10.9902 23.0234 11.252 22.7422 11.4668C22.4609 11.6816 22.127 11.8438 21.7402 11.9531C21.3574 12.0625 20.9375 12.1172 20.4805 12.1172C20.1133 12.1172 19.75 12.0703 19.3906 11.9766C19.0352 11.8789 18.7129 11.7305 18.4238 11.5312C18.1348 11.3281 17.9023 11.0703 17.7266 10.7578C17.5547 10.4453 17.4688 10.0703 17.4688 9.63281H18.5996C18.5996 9.91797 18.6777 10.1797 18.834 10.418C18.9941 10.6562 19.2148 10.8477 19.4961 10.9922C19.7773 11.1328 20.1055 11.2031 20.4805 11.2031C20.9102 11.2031 21.2734 11.1367 21.5703 11.0039C21.8711 10.8672 22.0996 10.6816 22.2559 10.4473C22.416 10.209 22.4961 9.94141 22.4961 9.64453C22.4961 9.38281 22.4531 9.15625 22.3672 8.96484C22.2852 8.76953 22.1621 8.60938 21.998 8.48438C21.8379 8.35938 21.6367 8.26758 21.3945 8.20898C21.1562 8.14648 20.8789 8.11523 20.5625 8.11523H19.5898V7.40625ZM28.8895 10.916V7.65234C28.8895 7.40234 28.8387 7.18555 28.7371 7.00195C28.6395 6.81445 28.491 6.66992 28.2918 6.56836C28.0926 6.4668 27.8465 6.41602 27.5535 6.41602C27.2801 6.41602 27.0398 6.46289 26.8328 6.55664C26.6297 6.65039 26.4695 6.77344 26.3523 6.92578C26.2391 7.07812 26.1824 7.24219 26.1824 7.41797H25.0984C25.0984 7.19141 25.157 6.9668 25.2742 6.74414C25.3914 6.52148 25.5594 6.32031 25.7781 6.14062C26.0008 5.95703 26.2664 5.8125 26.575 5.70703C26.8875 5.59766 27.2352 5.54297 27.618 5.54297C28.0789 5.54297 28.4852 5.62109 28.8367 5.77734C29.1922 5.93359 29.4695 6.16992 29.6687 6.48633C29.8719 6.79883 29.9734 7.19141 29.9734 7.66406V10.6172C29.9734 10.8281 29.991 11.0527 30.0262 11.291C30.0652 11.5293 30.1219 11.7344 30.1961 11.9062V12H29.0652C29.0105 11.875 28.9676 11.709 28.9363 11.502C28.9051 11.291 28.8895 11.0957 28.8895 10.916ZM29.077 8.15625L29.0887 8.91797H27.993C27.6844 8.91797 27.409 8.94336 27.1668 8.99414C26.9246 9.04102 26.7215 9.11328 26.5574 9.21094C26.3934 9.30859 26.2684 9.43164 26.1824 9.58008C26.0965 9.72461 26.0535 9.89453 26.0535 10.0898C26.0535 10.2891 26.0984 10.4707 26.1883 10.6348C26.2781 10.7988 26.4129 10.9297 26.5926 11.0273C26.7762 11.1211 27.0008 11.168 27.2664 11.168C27.5984 11.168 27.8914 11.0977 28.1453 10.957C28.3992 10.8164 28.6004 10.6445 28.7488 10.4414C28.9012 10.2383 28.9832 10.041 28.9949 9.84961L29.4578 10.3711C29.4305 10.5352 29.3562 10.7168 29.2352 10.916C29.1141 11.1152 28.952 11.3066 28.7488 11.4902C28.5496 11.6699 28.3113 11.8203 28.034 11.9414C27.7605 12.0586 27.452 12.1172 27.1082 12.1172C26.6785 12.1172 26.3016 12.0332 25.9773 11.8652C25.657 11.6973 25.407 11.4727 25.2273 11.1914C25.0516 10.9062 24.9637 10.5879 24.9637 10.2363C24.9637 9.89648 25.0301 9.59766 25.1629 9.33984C25.2957 9.07812 25.4871 8.86133 25.7371 8.68945C25.9871 8.51367 26.2879 8.38086 26.6395 8.29102C26.991 8.20117 27.3836 8.15625 27.8172 8.15625H29.077ZM35.9742 5.66016V6.55664H33.0445V12H31.9605V5.66016H35.9742ZM36.7133 8.90039V8.76562C36.7133 8.30859 36.7797 7.88477 36.9125 7.49414C37.0453 7.09961 37.2367 6.75781 37.4867 6.46875C37.7367 6.17578 38.0395 5.94922 38.3949 5.78906C38.7504 5.625 39.1488 5.54297 39.5902 5.54297C40.0355 5.54297 40.4359 5.625 40.7914 5.78906C41.1508 5.94922 41.4555 6.17578 41.7055 6.46875C41.9594 6.75781 42.1527 7.09961 42.2855 7.49414C42.4184 7.88477 42.4848 8.30859 42.4848 8.76562V8.90039C42.4848 9.35742 42.4184 9.78125 42.2855 10.1719C42.1527 10.5625 41.9594 10.9043 41.7055 11.1973C41.4555 11.4863 41.1527 11.7129 40.7973 11.877C40.4457 12.0371 40.0473 12.1172 39.602 12.1172C39.1566 12.1172 38.7563 12.0371 38.4008 11.877C38.0453 11.7129 37.7406 11.4863 37.4867 11.1973C37.2367 10.9043 37.0453 10.5625 36.9125 10.1719C36.7797 9.78125 36.7133 9.35742 36.7133 8.90039ZM37.7973 8.76562V8.90039C37.7973 9.2168 37.8344 9.51562 37.9086 9.79688C37.9828 10.0742 38.0941 10.3203 38.2426 10.5352C38.3949 10.75 38.5844 10.9199 38.8109 11.0449C39.0375 11.166 39.3012 11.2266 39.602 11.2266C39.8988 11.2266 40.1586 11.166 40.3813 11.0449C40.6078 10.9199 40.7953 10.75 40.9438 10.5352C41.0922 10.3203 41.2035 10.0742 41.2777 9.79688C41.3559 9.51562 41.3949 9.2168 41.3949 8.90039V8.76562C41.3949 8.45312 41.3559 8.1582 41.2777 7.88086C41.2035 7.59961 41.0902 7.35156 40.9379 7.13672C40.7895 6.91797 40.602 6.74609 40.3754 6.62109C40.1527 6.49609 39.891 6.43359 39.5902 6.43359C39.2934 6.43359 39.0316 6.49609 38.8051 6.62109C38.5824 6.74609 38.3949 6.91797 38.2426 7.13672C38.0941 7.35156 37.9828 7.59961 37.9086 7.88086C37.8344 8.1582 37.7973 8.45312 37.7973 8.76562ZM48.1867 5.66016V6.55664H45.1223V5.66016H48.1867ZM49.1418 5.66016V12H48.0578V5.66016H49.1418ZM44.8586 5.66016H45.9484L45.7844 8.71875C45.757 9.19141 45.7121 9.60938 45.6496 9.97266C45.591 10.332 45.509 10.6406 45.4035 10.8984C45.302 11.1562 45.173 11.3672 45.0168 11.5312C44.8645 11.6914 44.6809 11.8105 44.466 11.8887C44.2512 11.9629 44.0031 12 43.7219 12H43.382V11.0449L43.6164 11.0273C43.7844 11.0156 43.927 10.9766 44.0441 10.9102C44.1652 10.8438 44.2668 10.7461 44.3488 10.6172C44.4309 10.4844 44.4973 10.3145 44.548 10.1074C44.6027 9.90039 44.6437 9.6543 44.6711 9.36914C44.7023 9.08398 44.7258 8.75195 44.7414 8.37305L44.8586 5.66016ZM50.8008 8.90039V8.76562C50.8008 8.30859 50.8672 7.88477 51 7.49414C51.1328 7.09961 51.3242 6.75781 51.5742 6.46875C51.8242 6.17578 52.127 5.94922 52.4824 5.78906C52.8379 5.625 53.2363 5.54297 53.6777 5.54297C54.123 5.54297 54.5234 5.625 54.8789 5.78906C55.2383 5.94922 55.543 6.17578 55.793 6.46875C56.0469 6.75781 56.2402 7.09961 56.373 7.49414C56.5059 7.88477 56.5723 8.30859 56.5723 8.76562V8.90039C56.5723 9.35742 56.5059 9.78125 56.373 10.1719C56.2402 10.5625 56.0469 10.9043 55.793 11.1973C55.543 11.4863 55.2402 11.7129 54.8848 11.877C54.5332 12.0371 54.1348 12.1172 53.6895 12.1172C53.2441 12.1172 52.8438 12.0371 52.4883 11.877C52.1328 11.7129 51.8281 11.4863 51.5742 11.1973C51.3242 10.9043 51.1328 10.5625 51 10.1719C50.8672 9.78125 50.8008 9.35742 50.8008 8.90039ZM51.8848 8.76562V8.90039C51.8848 9.2168 51.9219 9.51562 51.9961 9.79688C52.0703 10.0742 52.1816 10.3203 52.3301 10.5352C52.4824 10.75 52.6719 10.9199 52.8984 11.0449C53.125 11.166 53.3887 11.2266 53.6895 11.2266C53.9863 11.2266 54.2461 11.166 54.4688 11.0449C54.6953 10.9199 54.8828 10.75 55.0312 10.5352C55.1797 10.3203 55.291 10.0742 55.3652 9.79688C55.4434 9.51562 55.4824 9.2168 55.4824 8.90039V8.76562C55.4824 8.45312 55.4434 8.1582 55.3652 7.88086C55.291 7.59961 55.1777 7.35156 55.0254 7.13672C54.877 6.91797 54.6895 6.74609 54.4629 6.62109C54.2402 6.49609 53.9785 6.43359 53.6777 6.43359C53.3809 6.43359 53.1191 6.49609 52.8926 6.62109C52.6699 6.74609 52.4824 6.91797 52.3301 7.13672C52.1816 7.35156 52.0703 7.59961 51.9961 7.88086C51.9219 8.1582 51.8848 8.45312 51.8848 8.76562ZM61.1082 9.21094H59.0281L59.0164 8.34375H60.7156C61.0516 8.34375 61.3309 8.31055 61.5535 8.24414C61.7801 8.17773 61.95 8.07812 62.0633 7.94531C62.1766 7.8125 62.2332 7.64844 62.2332 7.45312C62.2332 7.30078 62.2 7.16797 62.1336 7.05469C62.0711 6.9375 61.9754 6.8418 61.8465 6.76758C61.7176 6.68945 61.5574 6.63281 61.366 6.59766C61.1785 6.55859 60.9578 6.53906 60.7039 6.53906H59.3152V12H58.2313V5.66016H60.7039C61.1063 5.66016 61.4676 5.69531 61.7879 5.76562C62.1121 5.83594 62.3875 5.94336 62.6141 6.08789C62.8445 6.22852 63.0203 6.4082 63.1414 6.62695C63.2625 6.8457 63.323 7.10352 63.323 7.40039C63.323 7.5918 63.284 7.77344 63.2059 7.94531C63.1277 8.11719 63.0125 8.26953 62.8602 8.40234C62.7078 8.53516 62.5203 8.64453 62.2977 8.73047C62.075 8.8125 61.8191 8.86523 61.5301 8.88867L61.1082 9.21094ZM61.1082 12H58.6355L59.1746 11.1211H61.1082C61.409 11.1211 61.659 11.084 61.8582 11.0098C62.0574 10.9316 62.2059 10.8223 62.3035 10.6816C62.4051 10.5371 62.4559 10.3652 62.4559 10.166C62.4559 9.9668 62.4051 9.79688 62.3035 9.65625C62.2059 9.51172 62.0574 9.40234 61.8582 9.32812C61.659 9.25 61.409 9.21094 61.1082 9.21094H59.4617L59.4734 8.34375H61.5301L61.9227 8.67188C62.2703 8.69922 62.5652 8.78516 62.8074 8.92969C63.0496 9.07422 63.2332 9.25781 63.3582 9.48047C63.4832 9.69922 63.5457 9.9375 63.5457 10.1953C63.5457 10.4922 63.4891 10.7539 63.3758 10.9805C63.2664 11.207 63.1063 11.3965 62.8953 11.5488C62.6844 11.6973 62.4285 11.8105 62.1277 11.8887C61.827 11.9629 61.4871 12 61.1082 12ZM64.9117 8.90039V8.76562C64.9117 8.30859 64.9781 7.88477 65.1109 7.49414C65.2438 7.09961 65.4352 6.75781 65.6852 6.46875C65.9352 6.17578 66.2379 5.94922 66.5934 5.78906C66.9488 5.625 67.3473 5.54297 67.7887 5.54297C68.234 5.54297 68.6344 5.625 68.9898 5.78906C69.3492 5.94922 69.6539 6.17578 69.9039 6.46875C70.1578 6.75781 70.3512 7.09961 70.484 7.49414C70.6168 7.88477 70.6832 8.30859 70.6832 8.76562V8.90039C70.6832 9.35742 70.6168 9.78125 70.484 10.1719C70.3512 10.5625 70.1578 10.9043 69.9039 11.1973C69.6539 11.4863 69.3512 11.7129 68.9957 11.877C68.6441 12.0371 68.2457 12.1172 67.8004 12.1172C67.3551 12.1172 66.9547 12.0371 66.5992 11.877C66.2438 11.7129 65.9391 11.4863 65.6852 11.1973C65.4352 10.9043 65.2438 10.5625 65.1109 10.1719C64.9781 9.78125 64.9117 9.35742 64.9117 8.90039ZM65.9957 8.76562V8.90039C65.9957 9.2168 66.0328 9.51562 66.107 9.79688C66.1813 10.0742 66.2926 10.3203 66.441 10.5352C66.5934 10.75 66.7828 10.9199 67.0094 11.0449C67.2359 11.166 67.4996 11.2266 67.8004 11.2266C68.0973 11.2266 68.357 11.166 68.5797 11.0449C68.8063 10.9199 68.9938 10.75 69.1422 10.5352C69.2906 10.3203 69.402 10.0742 69.4762 9.79688C69.5543 9.51562 69.5934 9.2168 69.5934 8.90039V8.76562C69.5934 8.45312 69.5543 8.1582 69.4762 7.88086C69.402 7.59961 69.2887 7.35156 69.1363 7.13672C68.9879 6.91797 68.8004 6.74609 68.5738 6.62109C68.3512 6.49609 68.0895 6.43359 67.7887 6.43359C67.4918 6.43359 67.2301 6.49609 67.0035 6.62109C66.7809 6.74609 66.5934 6.91797 66.441 7.13672C66.2926 7.35156 66.1813 7.59961 66.107 7.88086C66.0328 8.1582 65.9957 8.45312 65.9957 8.76562ZM73.4203 5.66016V12H72.3363V5.66016H73.4203ZM77.5805 5.66016L74.5746 9.29297H73.057L72.893 8.34375H74.1352L76.2621 5.66016H77.5805ZM76.4145 12L74.0824 9.12891L74.7797 8.34375L77.7914 12H76.4145ZM84.6484 11.2266C84.9062 11.2266 85.1445 11.1738 85.3633 11.0684C85.582 10.9629 85.7617 10.8184 85.9023 10.6348C86.043 10.4473 86.123 10.2344 86.1426 9.99609H87.1738C87.1543 10.3711 87.0273 10.7207 86.793 11.0449C86.5625 11.3652 86.2598 11.625 85.8848 11.8242C85.5098 12.0195 85.0977 12.1172 84.6484 12.1172C84.1719 12.1172 83.7559 12.0332 83.4004 11.8652C83.0488 11.6973 82.7559 11.4668 82.5215 11.1738C82.291 10.8809 82.1172 10.5449 82 10.166C81.8867 9.7832 81.8301 9.37891 81.8301 8.95312V8.70703C81.8301 8.28125 81.8867 7.87891 82 7.5C82.1172 7.11719 82.291 6.7793 82.5215 6.48633C82.7559 6.19336 83.0488 5.96289 83.4004 5.79492C83.7559 5.62695 84.1719 5.54297 84.6484 5.54297C85.1445 5.54297 85.5781 5.64453 85.9492 5.84766C86.3203 6.04688 86.6113 6.32031 86.8223 6.66797C87.0371 7.01172 87.1543 7.40234 87.1738 7.83984H86.1426C86.123 7.57812 86.0488 7.3418 85.9199 7.13086C85.7949 6.91992 85.623 6.75195 85.4043 6.62695C85.1895 6.49805 84.9375 6.43359 84.6484 6.43359C84.3164 6.43359 84.0371 6.5 83.8105 6.63281C83.5879 6.76172 83.4102 6.9375 83.2773 7.16016C83.1484 7.37891 83.0547 7.62305 82.9961 7.89258C82.9414 8.1582 82.9141 8.42969 82.9141 8.70703V8.95312C82.9141 9.23047 82.9414 9.50391 82.9961 9.77344C83.0508 10.043 83.1426 10.2871 83.2715 10.5059C83.4043 10.7246 83.582 10.9004 83.8047 11.0332C84.0312 11.1621 84.3125 11.2266 84.6484 11.2266ZM92.6883 5.66016V6.55664H89.7586V12H88.6746V5.66016H92.6883ZM96.3453 12.1172C95.9039 12.1172 95.5035 12.043 95.1441 11.8945C94.7887 11.7422 94.482 11.5293 94.2242 11.2559C93.9703 10.9824 93.775 10.6582 93.6383 10.2832C93.5016 9.9082 93.4332 9.49805 93.4332 9.05273V8.80664C93.4332 8.29102 93.5094 7.83203 93.6617 7.42969C93.8141 7.02344 94.0211 6.67969 94.2828 6.39844C94.5445 6.11719 94.8414 5.9043 95.1734 5.75977C95.5055 5.61523 95.8492 5.54297 96.2047 5.54297C96.6578 5.54297 97.0484 5.62109 97.3766 5.77734C97.7086 5.93359 97.9801 6.15234 98.191 6.43359C98.402 6.71094 98.5582 7.03906 98.6598 7.41797C98.7613 7.79297 98.8121 8.20312 98.8121 8.64844V9.13477H94.0777V8.25H97.7281V8.16797C97.7125 7.88672 97.6539 7.61328 97.5523 7.34766C97.4547 7.08203 97.2984 6.86328 97.0836 6.69141C96.8688 6.51953 96.5758 6.43359 96.2047 6.43359C95.9586 6.43359 95.732 6.48633 95.525 6.5918C95.318 6.69336 95.1402 6.8457 94.9918 7.04883C94.8434 7.25195 94.7281 7.5 94.6461 7.79297C94.5641 8.08594 94.523 8.42383 94.523 8.80664V9.05273C94.523 9.35352 94.5641 9.63672 94.6461 9.90234C94.732 10.1641 94.8551 10.3945 95.0152 10.5938C95.1793 10.793 95.3766 10.9492 95.607 11.0625C95.8414 11.1758 96.107 11.2324 96.4039 11.2324C96.7867 11.2324 97.1109 11.1543 97.3766 10.998C97.6422 10.8418 97.8746 10.6328 98.0738 10.3711L98.7301 10.8926C98.5934 11.0996 98.4195 11.2969 98.2086 11.4844C97.9977 11.6719 97.7379 11.8242 97.4293 11.9414C97.1246 12.0586 96.7633 12.1172 96.3453 12.1172ZM104.579 8.4082V9.28711H101.227V8.4082H104.579ZM101.455 5.66016V12H100.371V5.66016H101.455ZM105.457 5.66016V12H104.368V5.66016H105.457ZM110.034 12.1172C109.593 12.1172 109.193 12.043 108.833 11.8945C108.478 11.7422 108.171 11.5293 107.913 11.2559C107.659 10.9824 107.464 10.6582 107.327 10.2832C107.191 9.9082 107.122 9.49805 107.122 9.05273V8.80664C107.122 8.29102 107.198 7.83203 107.351 7.42969C107.503 7.02344 107.71 6.67969 107.972 6.39844C108.234 6.11719 108.53 5.9043 108.863 5.75977C109.195 5.61523 109.538 5.54297 109.894 5.54297C110.347 5.54297 110.738 5.62109 111.066 5.77734C111.398 5.93359 111.669 6.15234 111.88 6.43359C112.091 6.71094 112.247 7.03906 112.349 7.41797C112.45 7.79297 112.501 8.20312 112.501 8.64844V9.13477H107.767V8.25H111.417V8.16797C111.402 7.88672 111.343 7.61328 111.241 7.34766C111.144 7.08203 110.988 6.86328 110.773 6.69141C110.558 6.51953 110.265 6.43359 109.894 6.43359C109.648 6.43359 109.421 6.48633 109.214 6.5918C109.007 6.69336 108.829 6.8457 108.681 7.04883C108.532 7.25195 108.417 7.5 108.335 7.79297C108.253 8.08594 108.212 8.42383 108.212 8.80664V9.05273C108.212 9.35352 108.253 9.63672 108.335 9.90234C108.421 10.1641 108.544 10.3945 108.704 10.5938C108.868 10.793 109.066 10.9492 109.296 11.0625C109.53 11.1758 109.796 11.2324 110.093 11.2324C110.476 11.2324 110.8 11.1543 111.066 10.998C111.331 10.8418 111.564 10.6328 111.763 10.3711L112.419 10.8926C112.282 11.0996 112.109 11.2969 111.898 11.4844C111.687 11.6719 111.427 11.8242 111.118 11.9414C110.814 12.0586 110.452 12.1172 110.034 12.1172ZM115.051 6.87891V14.4375H113.961V5.66016H114.957L115.051 6.87891ZM119.322 8.77734V8.90039C119.322 9.36133 119.268 9.78906 119.158 10.1836C119.049 10.5742 118.889 10.9141 118.678 11.2031C118.471 11.4922 118.215 11.7168 117.91 11.877C117.605 12.0371 117.256 12.1172 116.861 12.1172C116.459 12.1172 116.104 12.0508 115.795 11.918C115.486 11.7852 115.225 11.5918 115.01 11.3379C114.795 11.084 114.623 10.7793 114.494 10.4238C114.369 10.0684 114.283 9.66797 114.236 9.22266V8.56641C114.283 8.09766 114.371 7.67773 114.5 7.30664C114.629 6.93555 114.799 6.61914 115.01 6.35742C115.225 6.0918 115.484 5.89062 115.789 5.75391C116.094 5.61328 116.445 5.54297 116.844 5.54297C117.242 5.54297 117.596 5.62109 117.904 5.77734C118.213 5.92969 118.473 6.14844 118.684 6.43359C118.895 6.71875 119.053 7.06055 119.158 7.45898C119.268 7.85352 119.322 8.29297 119.322 8.77734ZM118.232 8.90039V8.77734C118.232 8.46094 118.199 8.16406 118.133 7.88672C118.066 7.60547 117.963 7.35938 117.822 7.14844C117.686 6.93359 117.51 6.76562 117.295 6.64453C117.08 6.51953 116.824 6.45703 116.527 6.45703C116.254 6.45703 116.016 6.50391 115.812 6.59766C115.613 6.69141 115.443 6.81836 115.303 6.97852C115.162 7.13477 115.047 7.31445 114.957 7.51758C114.871 7.7168 114.807 7.92383 114.764 8.13867V9.65625C114.842 9.92969 114.951 10.1875 115.092 10.4297C115.232 10.668 115.42 10.8613 115.654 11.0098C115.889 11.1543 116.184 11.2266 116.539 11.2266C116.832 11.2266 117.084 11.166 117.295 11.0449C117.51 10.9199 117.686 10.75 117.822 10.5352C117.963 10.3203 118.066 10.0742 118.133 9.79688C118.199 9.51562 118.232 9.2168 118.232 8.90039ZM122.077 10.2832L125.001 5.66016H126.091V12H125.001V7.37695L122.077 12H120.999V5.66016H122.077V10.2832ZM129.115 6.87891V14.4375H128.025V5.66016H129.021L129.115 6.87891ZM133.386 8.77734V8.90039C133.386 9.36133 133.332 9.78906 133.222 10.1836C133.113 10.5742 132.953 10.9141 132.742 11.2031C132.535 11.4922 132.279 11.7168 131.974 11.877C131.67 12.0371 131.32 12.1172 130.925 12.1172C130.523 12.1172 130.168 12.0508 129.859 11.918C129.55 11.7852 129.289 11.5918 129.074 11.3379C128.859 11.084 128.687 10.7793 128.558 10.4238C128.433 10.0684 128.347 9.66797 128.3 9.22266V8.56641C128.347 8.09766 128.435 7.67773 128.564 7.30664C128.693 6.93555 128.863 6.61914 129.074 6.35742C129.289 6.0918 129.548 5.89062 129.853 5.75391C130.158 5.61328 130.509 5.54297 130.908 5.54297C131.306 5.54297 131.66 5.62109 131.968 5.77734C132.277 5.92969 132.537 6.14844 132.748 6.43359C132.959 6.71875 133.117 7.06055 133.222 7.45898C133.332 7.85352 133.386 8.29297 133.386 8.77734ZM132.296 8.90039V8.77734C132.296 8.46094 132.263 8.16406 132.197 7.88672C132.13 7.60547 132.027 7.35938 131.886 7.14844C131.75 6.93359 131.574 6.76562 131.359 6.64453C131.144 6.51953 130.888 6.45703 130.591 6.45703C130.318 6.45703 130.08 6.50391 129.877 6.59766C129.677 6.69141 129.507 6.81836 129.367 6.97852C129.226 7.13477 129.111 7.31445 129.021 7.51758C128.935 7.7168 128.871 7.92383 128.828 8.13867V9.65625C128.906 9.92969 129.015 10.1875 129.156 10.4297C129.296 10.668 129.484 10.8613 129.718 11.0098C129.953 11.1543 130.248 11.2266 130.603 11.2266C130.896 11.2266 131.148 11.166 131.359 11.0449C131.574 10.9199 131.75 10.75 131.886 10.5352C132.027 10.3203 132.13 10.0742 132.197 9.79688C132.263 9.51562 132.296 9.2168 132.296 8.90039ZM134.682 8.90039V8.76562C134.682 8.30859 134.748 7.88477 134.881 7.49414C135.014 7.09961 135.205 6.75781 135.455 6.46875C135.705 6.17578 136.008 5.94922 136.364 5.78906C136.719 5.625 137.118 5.54297 137.559 5.54297C138.004 5.54297 138.405 5.625 138.76 5.78906C139.12 5.94922 139.424 6.17578 139.674 6.46875C139.928 6.75781 140.121 7.09961 140.254 7.49414C140.387 7.88477 140.454 8.30859 140.454 8.76562V8.90039C140.454 9.35742 140.387 9.78125 140.254 10.1719C140.121 10.5625 139.928 10.9043 139.674 11.1973C139.424 11.4863 139.121 11.7129 138.766 11.877C138.414 12.0371 138.016 12.1172 137.571 12.1172C137.125 12.1172 136.725 12.0371 136.37 11.877C136.014 11.7129 135.709 11.4863 135.455 11.1973C135.205 10.9043 135.014 10.5625 134.881 10.1719C134.748 9.78125 134.682 9.35742 134.682 8.90039ZM135.766 8.76562V8.90039C135.766 9.2168 135.803 9.51562 135.877 9.79688C135.952 10.0742 136.063 10.3203 136.211 10.5352C136.364 10.75 136.553 10.9199 136.78 11.0449C137.006 11.166 137.27 11.2266 137.571 11.2266C137.868 11.2266 138.127 11.166 138.35 11.0449C138.577 10.9199 138.764 10.75 138.912 10.5352C139.061 10.3203 139.172 10.0742 139.246 9.79688C139.325 9.51562 139.364 9.2168 139.364 8.90039V8.76562C139.364 8.45312 139.325 8.1582 139.246 7.88086C139.172 7.59961 139.059 7.35156 138.907 7.13672C138.758 6.91797 138.571 6.74609 138.344 6.62109C138.121 6.49609 137.86 6.43359 137.559 6.43359C137.262 6.43359 137 6.49609 136.774 6.62109C136.551 6.74609 136.364 6.91797 136.211 7.13672C136.063 7.35156 135.952 7.59961 135.877 7.88086C135.803 8.1582 135.766 8.45312 135.766 8.76562ZM144.989 9.21094H142.909L142.898 8.34375H144.597C144.933 8.34375 145.212 8.31055 145.435 8.24414C145.661 8.17773 145.831 8.07812 145.945 7.94531C146.058 7.8125 146.114 7.64844 146.114 7.45312C146.114 7.30078 146.081 7.16797 146.015 7.05469C145.952 6.9375 145.857 6.8418 145.728 6.76758C145.599 6.68945 145.439 6.63281 145.247 6.59766C145.06 6.55859 144.839 6.53906 144.585 6.53906H143.196V12H142.113V5.66016H144.585C144.988 5.66016 145.349 5.69531 145.669 5.76562C145.993 5.83594 146.269 5.94336 146.495 6.08789C146.726 6.22852 146.902 6.4082 147.023 6.62695C147.144 6.8457 147.204 7.10352 147.204 7.40039C147.204 7.5918 147.165 7.77344 147.087 7.94531C147.009 8.11719 146.894 8.26953 146.741 8.40234C146.589 8.53516 146.402 8.64453 146.179 8.73047C145.956 8.8125 145.7 8.86523 145.411 8.88867L144.989 9.21094ZM144.989 12H142.517L143.056 11.1211H144.989C145.29 11.1211 145.54 11.084 145.739 11.0098C145.939 10.9316 146.087 10.8223 146.185 10.6816C146.286 10.5371 146.337 10.3652 146.337 10.166C146.337 9.9668 146.286 9.79688 146.185 9.65625C146.087 9.51172 145.939 9.40234 145.739 9.32812C145.54 9.25 145.29 9.21094 144.989 9.21094H143.343L143.355 8.34375H145.411L145.804 8.67188C146.152 8.69922 146.446 8.78516 146.689 8.92969C146.931 9.07422 147.114 9.25781 147.239 9.48047C147.364 9.69922 147.427 9.9375 147.427 10.1953C147.427 10.4922 147.37 10.7539 147.257 10.9805C147.148 11.207 146.988 11.3965 146.777 11.5488C146.566 11.6973 146.31 11.8105 146.009 11.8887C145.708 11.9629 145.368 12 144.989 12ZM152.818 10.916V7.65234C152.818 7.40234 152.768 7.18555 152.666 7.00195C152.568 6.81445 152.42 6.66992 152.221 6.56836C152.021 6.4668 151.775 6.41602 151.482 6.41602C151.209 6.41602 150.969 6.46289 150.762 6.55664C150.559 6.65039 150.398 6.77344 150.281 6.92578C150.168 7.07812 150.111 7.24219 150.111 7.41797H149.027C149.027 7.19141 149.086 6.9668 149.203 6.74414C149.32 6.52148 149.488 6.32031 149.707 6.14062C149.93 5.95703 150.195 5.8125 150.504 5.70703C150.816 5.59766 151.164 5.54297 151.547 5.54297C152.008 5.54297 152.414 5.62109 152.766 5.77734C153.121 5.93359 153.398 6.16992 153.598 6.48633C153.801 6.79883 153.902 7.19141 153.902 7.66406V10.6172C153.902 10.8281 153.92 11.0527 153.955 11.291C153.994 11.5293 154.051 11.7344 154.125 11.9062V12H152.994C152.939 11.875 152.896 11.709 152.865 11.502C152.834 11.291 152.818 11.0957 152.818 10.916ZM153.006 8.15625L153.018 8.91797H151.922C151.613 8.91797 151.338 8.94336 151.096 8.99414C150.854 9.04102 150.65 9.11328 150.486 9.21094C150.322 9.30859 150.197 9.43164 150.111 9.58008C150.025 9.72461 149.982 9.89453 149.982 10.0898C149.982 10.2891 150.027 10.4707 150.117 10.6348C150.207 10.7988 150.342 10.9297 150.521 11.0273C150.705 11.1211 150.93 11.168 151.195 11.168C151.527 11.168 151.82 11.0977 152.074 10.957C152.328 10.8164 152.529 10.6445 152.678 10.4414C152.83 10.2383 152.912 10.041 152.924 9.84961L153.387 10.3711C153.359 10.5352 153.285 10.7168 153.164 10.916C153.043 11.1152 152.881 11.3066 152.678 11.4902C152.479 11.6699 152.24 11.8203 151.963 11.9414C151.689 12.0586 151.381 12.1172 151.037 12.1172C150.607 12.1172 150.23 12.0332 149.906 11.8652C149.586 11.6973 149.336 11.4727 149.156 11.1914C148.98 10.9062 148.893 10.5879 148.893 10.2363C148.893 9.89648 148.959 9.59766 149.092 9.33984C149.225 9.07812 149.416 8.86133 149.666 8.68945C149.916 8.51367 150.217 8.38086 150.568 8.29102C150.92 8.20117 151.312 8.15625 151.746 8.15625H153.006ZM160.108 8.4082V9.28711H156.757V8.4082H160.108ZM156.985 5.66016V12H155.901V5.66016H156.985ZM160.987 5.66016V12H159.897V5.66016H160.987ZM170.411 8.4082V9.28711H167.059V8.4082H170.411ZM167.288 5.66016V12H166.204V5.66016H167.288ZM171.289 5.66016V12H170.2V5.66016H171.289ZM175.866 12.1172C175.425 12.1172 175.025 12.043 174.665 11.8945C174.31 11.7422 174.003 11.5293 173.745 11.2559C173.491 10.9824 173.296 10.6582 173.159 10.2832C173.023 9.9082 172.954 9.49805 172.954 9.05273V8.80664C172.954 8.29102 173.03 7.83203 173.183 7.42969C173.335 7.02344 173.542 6.67969 173.804 6.39844C174.066 6.11719 174.363 5.9043 174.695 5.75977C175.027 5.61523 175.37 5.54297 175.726 5.54297C176.179 5.54297 176.57 5.62109 176.898 5.77734C177.23 5.93359 177.501 6.15234 177.712 6.43359C177.923 6.71094 178.079 7.03906 178.181 7.41797C178.282 7.79297 178.333 8.20312 178.333 8.64844V9.13477H173.599V8.25H177.249V8.16797C177.234 7.88672 177.175 7.61328 177.073 7.34766C176.976 7.08203 176.82 6.86328 176.605 6.69141C176.39 6.51953 176.097 6.43359 175.726 6.43359C175.48 6.43359 175.253 6.48633 175.046 6.5918C174.839 6.69336 174.661 6.8457 174.513 7.04883C174.364 7.25195 174.249 7.5 174.167 7.79297C174.085 8.08594 174.044 8.42383 174.044 8.80664V9.05273C174.044 9.35352 174.085 9.63672 174.167 9.90234C174.253 10.1641 174.376 10.3945 174.536 10.5938C174.7 10.793 174.898 10.9492 175.128 11.0625C175.363 11.1758 175.628 11.2324 175.925 11.2324C176.308 11.2324 176.632 11.1543 176.898 10.998C177.163 10.8418 177.396 10.6328 177.595 10.3711L178.251 10.8926C178.114 11.0996 177.941 11.2969 177.73 11.4844C177.519 11.6719 177.259 11.8242 176.95 11.9414C176.646 12.0586 176.284 12.1172 175.866 12.1172ZM180.971 10.2832L183.895 5.66016H184.984V12H183.895V7.37695L180.971 12H179.893V5.66016H180.971V10.2832ZM183.303 3.36328H184.182C184.182 3.66797 184.111 3.93945 183.971 4.17773C183.83 4.41211 183.629 4.5957 183.367 4.72852C183.105 4.86133 182.795 4.92773 182.436 4.92773C181.893 4.92773 181.463 4.7832 181.146 4.49414C180.834 4.20117 180.678 3.82422 180.678 3.36328H181.557C181.557 3.59375 181.623 3.79688 181.756 3.97266C181.889 4.14844 182.115 4.23633 182.436 4.23633C182.748 4.23633 182.971 4.14844 183.104 3.97266C183.236 3.79688 183.303 3.59375 183.303 3.36328ZM188.009 6.87891V14.4375H186.919V5.66016H187.915L188.009 6.87891ZM192.28 8.77734V8.90039C192.28 9.36133 192.225 9.78906 192.116 10.1836C192.007 10.5742 191.846 10.9141 191.636 11.2031C191.429 11.4922 191.173 11.7168 190.868 11.877C190.563 12.0371 190.214 12.1172 189.819 12.1172C189.417 12.1172 189.061 12.0508 188.753 11.918C188.444 11.7852 188.182 11.5918 187.968 11.3379C187.753 11.084 187.581 10.7793 187.452 10.4238C187.327 10.0684 187.241 9.66797 187.194 9.22266V8.56641C187.241 8.09766 187.329 7.67773 187.458 7.30664C187.587 6.93555 187.757 6.61914 187.968 6.35742C188.182 6.0918 188.442 5.89062 188.747 5.75391C189.052 5.61328 189.403 5.54297 189.802 5.54297C190.2 5.54297 190.554 5.62109 190.862 5.77734C191.171 5.92969 191.43 6.14844 191.641 6.43359C191.852 6.71875 192.011 7.06055 192.116 7.45898C192.225 7.85352 192.28 8.29297 192.28 8.77734ZM191.19 8.90039V8.77734C191.19 8.46094 191.157 8.16406 191.091 7.88672C191.024 7.60547 190.921 7.35938 190.78 7.14844C190.643 6.93359 190.468 6.76562 190.253 6.64453C190.038 6.51953 189.782 6.45703 189.485 6.45703C189.212 6.45703 188.973 6.50391 188.77 6.59766C188.571 6.69141 188.401 6.81836 188.261 6.97852C188.12 7.13477 188.005 7.31445 187.915 7.51758C187.829 7.7168 187.764 7.92383 187.721 8.13867V9.65625C187.8 9.92969 187.909 10.1875 188.05 10.4297C188.19 10.668 188.378 10.8613 188.612 11.0098C188.846 11.1543 189.141 11.2266 189.497 11.2266C189.79 11.2266 190.042 11.166 190.253 11.0449C190.468 10.9199 190.643 10.75 190.78 10.5352C190.921 10.3203 191.024 10.0742 191.091 9.79688C191.157 9.51562 191.19 9.2168 191.19 8.90039ZM193.576 8.90039V8.76562C193.576 8.30859 193.642 7.88477 193.775 7.49414C193.908 7.09961 194.099 6.75781 194.349 6.46875C194.599 6.17578 194.902 5.94922 195.257 5.78906C195.613 5.625 196.011 5.54297 196.453 5.54297C196.898 5.54297 197.298 5.625 197.654 5.78906C198.013 5.94922 198.318 6.17578 198.568 6.46875C198.822 6.75781 199.015 7.09961 199.148 7.49414C199.281 7.88477 199.347 8.30859 199.347 8.76562V8.90039C199.347 9.35742 199.281 9.78125 199.148 10.1719C199.015 10.5625 198.822 10.9043 198.568 11.1973C198.318 11.4863 198.015 11.7129 197.66 11.877C197.308 12.0371 196.91 12.1172 196.464 12.1172C196.019 12.1172 195.619 12.0371 195.263 11.877C194.908 11.7129 194.603 11.4863 194.349 11.1973C194.099 10.9043 193.908 10.5625 193.775 10.1719C193.642 9.78125 193.576 9.35742 193.576 8.90039ZM194.66 8.76562V8.90039C194.66 9.2168 194.697 9.51562 194.771 9.79688C194.845 10.0742 194.957 10.3203 195.105 10.5352C195.257 10.75 195.447 10.9199 195.673 11.0449C195.9 11.166 196.164 11.2266 196.464 11.2266C196.761 11.2266 197.021 11.166 197.244 11.0449C197.47 10.9199 197.658 10.75 197.806 10.5352C197.955 10.3203 198.066 10.0742 198.14 9.79688C198.218 9.51562 198.257 9.2168 198.257 8.90039V8.76562C198.257 8.45312 198.218 8.1582 198.14 7.88086C198.066 7.59961 197.953 7.35156 197.8 7.13672C197.652 6.91797 197.464 6.74609 197.238 6.62109C197.015 6.49609 196.754 6.43359 196.453 6.43359C196.156 6.43359 195.894 6.49609 195.668 6.62109C195.445 6.74609 195.257 6.91797 195.105 7.13672C194.957 7.35156 194.845 7.59961 194.771 7.88086C194.697 8.1582 194.66 8.45312 194.66 8.76562ZM203.444 11.2266C203.702 11.2266 203.94 11.1738 204.159 11.0684C204.377 10.9629 204.557 10.8184 204.698 10.6348C204.838 10.4473 204.918 10.2344 204.938 9.99609H205.969C205.95 10.3711 205.823 10.7207 205.588 11.0449C205.358 11.3652 205.055 11.625 204.68 11.8242C204.305 12.0195 203.893 12.1172 203.444 12.1172C202.967 12.1172 202.551 12.0332 202.196 11.8652C201.844 11.6973 201.551 11.4668 201.317 11.1738C201.086 10.8809 200.913 10.5449 200.795 10.166C200.682 9.7832 200.625 9.37891 200.625 8.95312V8.70703C200.625 8.28125 200.682 7.87891 200.795 7.5C200.913 7.11719 201.086 6.7793 201.317 6.48633C201.551 6.19336 201.844 5.96289 202.196 5.79492C202.551 5.62695 202.967 5.54297 203.444 5.54297C203.94 5.54297 204.373 5.64453 204.745 5.84766C205.116 6.04688 205.407 6.32031 205.618 6.66797C205.832 7.01172 205.95 7.40234 205.969 7.83984H204.938C204.918 7.57812 204.844 7.3418 204.715 7.13086C204.59 6.91992 204.418 6.75195 204.2 6.62695C203.985 6.49805 203.733 6.43359 203.444 6.43359C203.112 6.43359 202.832 6.5 202.606 6.63281C202.383 6.76172 202.205 6.9375 202.073 7.16016C201.944 7.37891 201.85 7.62305 201.791 7.89258C201.737 8.1582 201.709 8.42969 201.709 8.70703V8.95312C201.709 9.23047 201.737 9.50391 201.791 9.77344C201.846 10.043 201.938 10.2871 202.067 10.5059C202.2 10.7246 202.377 10.9004 202.6 11.0332C202.827 11.1621 203.108 11.2266 203.444 11.2266ZM210.019 12.1172C209.577 12.1172 209.177 12.043 208.818 11.8945C208.462 11.7422 208.155 11.5293 207.898 11.2559C207.644 10.9824 207.448 10.6582 207.312 10.2832C207.175 9.9082 207.107 9.49805 207.107 9.05273V8.80664C207.107 8.29102 207.183 7.83203 207.335 7.42969C207.488 7.02344 207.695 6.67969 207.956 6.39844C208.218 6.11719 208.515 5.9043 208.847 5.75977C209.179 5.61523 209.523 5.54297 209.878 5.54297C210.331 5.54297 210.722 5.62109 211.05 5.77734C211.382 5.93359 211.654 6.15234 211.864 6.43359C212.075 6.71094 212.232 7.03906 212.333 7.41797C212.435 7.79297 212.486 8.20312 212.486 8.64844V9.13477H207.751V8.25H211.402V8.16797C211.386 7.88672 211.327 7.61328 211.226 7.34766C211.128 7.08203 210.972 6.86328 210.757 6.69141C210.542 6.51953 210.249 6.43359 209.878 6.43359C209.632 6.43359 209.405 6.48633 209.198 6.5918C208.991 6.69336 208.814 6.8457 208.665 7.04883C208.517 7.25195 208.402 7.5 208.32 7.79297C208.238 8.08594 208.196 8.42383 208.196 8.80664V9.05273C208.196 9.35352 208.238 9.63672 208.32 9.90234C208.405 10.1641 208.529 10.3945 208.689 10.5938C208.853 10.793 209.05 10.9492 209.28 11.0625C209.515 11.1758 209.78 11.2324 210.077 11.2324C210.46 11.2324 210.784 11.1543 211.05 10.998C211.316 10.8418 211.548 10.6328 211.747 10.3711L212.404 10.8926C212.267 11.0996 212.093 11.2969 211.882 11.4844C211.671 11.6719 211.411 11.8242 211.103 11.9414C210.798 12.0586 210.437 12.1172 210.019 12.1172ZM216.465 5.66016V12H215.375V5.66016H216.465ZM218.592 5.66016V6.53906H213.289V5.66016H218.592ZM220.749 7.83984H222.653C223.165 7.83984 223.596 7.92969 223.948 8.10938C224.3 8.28516 224.565 8.5293 224.745 8.8418C224.929 9.15039 225.02 9.50195 225.02 9.89648C225.02 10.1895 224.97 10.4648 224.868 10.7227C224.766 10.9766 224.614 11.1992 224.411 11.3906C224.212 11.582 223.964 11.7324 223.667 11.8418C223.374 11.9473 223.036 12 222.653 12H219.958V5.66016H221.042V11.1094H222.653C222.966 11.1094 223.216 11.0527 223.403 10.9395C223.591 10.8262 223.725 10.6797 223.807 10.5C223.889 10.3203 223.93 10.1328 223.93 9.9375C223.93 9.74609 223.889 9.55859 223.807 9.375C223.725 9.19141 223.591 9.03906 223.403 8.91797C223.216 8.79297 222.966 8.73047 222.653 8.73047H220.749V7.83984ZM230.183 8.34961V9.23438H226.814V8.34961H230.183ZM227.757 5.66016V12H226.673V5.66016H227.757ZM229.257 8.90039V8.76562C229.257 8.30859 229.324 7.88477 229.457 7.49414C229.589 7.09961 229.781 6.75781 230.031 6.46875C230.285 6.17578 230.587 5.94922 230.939 5.78906C231.295 5.625 231.693 5.54297 232.134 5.54297C232.584 5.54297 232.986 5.625 233.341 5.78906C233.697 5.94922 234 6.17578 234.25 6.46875C234.504 6.75781 234.697 7.09961 234.83 7.49414C234.962 7.88477 235.029 8.30859 235.029 8.76562V8.90039C235.029 9.35742 234.962 9.78125 234.83 10.1719C234.697 10.5625 234.505 10.9043 234.255 11.1973C234.005 11.4863 233.703 11.7129 233.347 11.877C232.992 12.0371 232.591 12.1172 232.146 12.1172C231.701 12.1172 231.3 12.0371 230.945 11.877C230.589 11.7129 230.285 11.4863 230.031 11.1973C229.781 10.9043 229.589 10.5625 229.457 10.1719C229.324 9.78125 229.257 9.35742 229.257 8.90039ZM230.347 8.76562V8.90039C230.347 9.2168 230.384 9.51562 230.459 9.79688C230.533 10.0742 230.644 10.3203 230.793 10.5352C230.945 10.75 231.132 10.9199 231.355 11.0449C231.582 11.166 231.845 11.2266 232.146 11.2266C232.447 11.2266 232.709 11.166 232.931 11.0449C233.158 10.9199 233.345 10.75 233.494 10.5352C233.642 10.3203 233.754 10.0742 233.828 9.79688C233.906 9.51562 233.945 9.2168 233.945 8.90039V8.76562C233.945 8.45312 233.906 8.1582 233.828 7.88086C233.754 7.59961 233.64 7.35156 233.488 7.13672C233.339 6.91797 233.152 6.74609 232.925 6.62109C232.699 6.49609 232.435 6.43359 232.134 6.43359C231.837 6.43359 231.578 6.49609 231.355 6.62109C231.132 6.74609 230.945 6.91797 230.793 7.13672C230.644 7.35156 230.533 7.59961 230.459 7.88086C230.384 8.1582 230.347 8.45312 230.347 8.76562Z" fill="#6A4DFF"/>
</svg>
