<svg width="264" height="14" viewBox="0 0 264 14" fill="none" xmlns="http://www.w3.org/2000/svg">
<path d="M3.49432 11.1392C2.83807 11.1392 2.25308 11.0265 1.73935 10.8011C1.22893 10.5758 0.822917 10.2625 0.521307 9.86151C0.223011 9.45715 0.0606061 8.98816 0.034091 8.45455H1.28693C1.31345 8.78267 1.42614 9.06605 1.625 9.30469C1.82386 9.54001 2.08404 9.7223 2.40554 9.85156C2.72704 9.98082 3.08333 10.0455 3.47443 10.0455C3.91193 10.0455 4.29972 9.96922 4.63778 9.81676C4.97585 9.6643 5.241 9.45218 5.43324 9.1804C5.62547 8.90862 5.72159 8.59375 5.72159 8.2358C5.72159 7.86127 5.62879 7.53149 5.44318 7.24645C5.25758 6.9581 4.9858 6.73272 4.62784 6.57031C4.26989 6.40791 3.83239 6.3267 3.31534 6.3267H2.5V5.23295H3.31534C3.7197 5.23295 4.07434 5.16004 4.37926 5.0142C4.6875 4.86837 4.92779 4.66288 5.10014 4.39773C5.27581 4.13258 5.36364 3.82102 5.36364 3.46307C5.36364 3.11837 5.28741 2.81842 5.13494 2.56321C4.98248 2.308 4.76705 2.10914 4.48864 1.96662C4.21354 1.8241 3.88873 1.75284 3.5142 1.75284C3.16288 1.75284 2.83144 1.81747 2.51989 1.94673C2.21165 2.07268 1.95975 2.25663 1.7642 2.49858C1.56866 2.73722 1.46259 3.02557 1.44602 3.36364H0.252841C0.272727 2.83002 0.433475 2.36269 0.735085 1.96165C1.0367 1.55729 1.43111 1.24242 1.91832 1.01705C2.40885 0.791666 2.94744 0.678977 3.53409 0.678977C4.16383 0.678977 4.70407 0.806581 5.15483 1.06179C5.60559 1.31368 5.95194 1.64678 6.19389 2.06108C6.43584 2.47538 6.55682 2.92282 6.55682 3.40341C6.55682 3.9768 6.40601 4.46567 6.1044 4.87003C5.80611 5.27438 5.4001 5.55445 4.88636 5.71023V5.78977C5.52936 5.89583 6.03149 6.16927 6.39276 6.61009C6.75402 7.04759 6.93466 7.58949 6.93466 8.2358C6.93466 8.7893 6.78385 9.28646 6.48224 9.72727C6.18395 10.1648 5.77628 10.5095 5.25923 10.7614C4.74219 11.0133 4.15388 11.1392 3.49432 11.1392ZM11.4194 11.179C10.9355 11.179 10.4963 11.0878 10.1019 10.9055C9.70747 10.7199 9.39426 10.4531 9.16225 10.1051C8.93025 9.75379 8.81424 9.32955 8.81424 8.83239C8.81424 8.39489 8.90042 8.04025 9.07276 7.76847C9.24511 7.49337 9.47546 7.27794 9.76382 7.12216C10.0522 6.96638 10.3703 6.85038 10.7184 6.77415C11.0697 6.6946 11.4227 6.63163 11.7773 6.58523C12.2413 6.52557 12.6175 6.48082 12.9059 6.45099C13.1975 6.41785 13.4096 6.36316 13.5422 6.28693C13.6781 6.2107 13.7461 6.07812 13.7461 5.8892V5.84943C13.7461 5.3589 13.6118 4.97775 13.3434 4.70597C13.0782 4.43419 12.6755 4.2983 12.1353 4.2983C11.5751 4.2983 11.136 4.42093 10.8178 4.66619C10.4996 4.91146 10.2759 5.1733 10.1466 5.4517L9.03299 5.05398C9.23186 4.58996 9.49701 4.22869 9.82845 3.97017C10.1632 3.70833 10.5278 3.52604 10.9222 3.4233C11.3199 3.31723 11.711 3.2642 12.0955 3.2642C12.3408 3.2642 12.6225 3.29403 12.9407 3.35369C13.2622 3.41004 13.5721 3.5277 13.8703 3.70668C14.172 3.88565 14.4222 4.15578 14.6211 4.51705C14.8199 4.87831 14.9194 5.36222 14.9194 5.96875V11H13.7461V9.96591H13.6864C13.6069 10.1316 13.4743 10.3089 13.2887 10.4979C13.1031 10.6868 12.8561 10.8475 12.5479 10.9801C12.2397 11.1127 11.8635 11.179 11.4194 11.179ZM11.5983 10.125C12.0623 10.125 12.4534 10.0339 12.7716 9.85156C13.0931 9.66927 13.3351 9.43395 13.4975 9.1456C13.6632 8.85724 13.7461 8.55398 13.7461 8.2358V7.16193C13.6963 7.22159 13.587 7.27628 13.4179 7.32599C13.2522 7.3724 13.06 7.41383 12.8412 7.45028C12.6258 7.48343 12.4153 7.51326 12.2098 7.53977C12.0077 7.56297 11.8436 7.58286 11.7177 7.59943C11.4127 7.6392 11.1277 7.70384 10.8625 7.79332C10.6007 7.8795 10.3886 8.01042 10.2262 8.18608C10.0671 8.35843 9.98754 8.59375 9.98754 8.89205C9.98754 9.29972 10.1383 9.60795 10.44 9.81676C10.7449 10.0223 11.131 10.125 11.5983 10.125ZM21.9582 3.36364V4.45739H18.4184V11H17.2451V3.36364H21.9582ZM26.561 11.1591C25.8716 11.1591 25.2667 10.995 24.7463 10.6669C24.2293 10.3388 23.8249 9.87973 23.5333 9.28977C23.2449 8.69981 23.1007 8.01042 23.1007 7.22159C23.1007 6.42614 23.2449 5.73177 23.5333 5.13849C23.8249 4.54522 24.2293 4.08452 24.7463 3.75639C25.2667 3.42827 25.8716 3.2642 26.561 3.2642C27.2504 3.2642 27.8536 3.42827 28.3706 3.75639C28.891 4.08452 29.2954 4.54522 29.5837 5.13849C29.8754 5.73177 30.0212 6.42614 30.0212 7.22159C30.0212 8.01042 29.8754 8.69981 29.5837 9.28977C29.2954 9.87973 28.891 10.3388 28.3706 10.6669C27.8536 10.995 27.2504 11.1591 26.561 11.1591ZM26.561 10.1051C27.0847 10.1051 27.5155 9.97088 27.8536 9.70241C28.1917 9.43395 28.4419 9.08097 28.6043 8.64347C28.7667 8.20597 28.8479 7.73201 28.8479 7.22159C28.8479 6.71117 28.7667 6.23556 28.6043 5.79474C28.4419 5.35393 28.1917 4.99763 27.8536 4.72585C27.5155 4.45407 27.0847 4.31818 26.561 4.31818C26.0373 4.31818 25.6064 4.45407 25.2684 4.72585C24.9303 4.99763 24.6801 5.35393 24.5177 5.79474C24.3552 6.23556 24.274 6.71117 24.274 7.22159C24.274 7.73201 24.3552 8.20597 24.5177 8.64347C24.6801 9.08097 24.9303 9.43395 25.2684 9.70241C25.6064 9.97088 26.0373 10.1051 26.561 10.1051ZM31.3204 11V9.90625H31.5988C31.8275 9.90625 32.018 9.86151 32.1705 9.77202C32.323 9.67921 32.4456 9.51847 32.5384 9.28977C32.6345 9.05777 32.7074 8.73627 32.7571 8.32528C32.8102 7.91098 32.8483 7.384 32.8715 6.74432L33.0107 3.36364H38.1016V11H36.9283V4.45739H34.1243L34.005 7.18182C33.9785 7.80824 33.9222 8.36009 33.836 8.83736C33.7531 9.31132 33.6255 9.70904 33.4532 10.0305C33.2841 10.352 33.0588 10.594 32.777 10.7564C32.4953 10.9188 32.1423 11 31.7181 11H31.3204ZM43.5408 11.1591C42.8515 11.1591 42.2466 10.995 41.7262 10.6669C41.2092 10.3388 40.8048 9.87973 40.5131 9.28977C40.2248 8.69981 40.0806 8.01042 40.0806 7.22159C40.0806 6.42614 40.2248 5.73177 40.5131 5.13849C40.8048 4.54522 41.2092 4.08452 41.7262 3.75639C42.2466 3.42827 42.8515 3.2642 43.5408 3.2642C44.2302 3.2642 44.8335 3.42827 45.3505 3.75639C45.8709 4.08452 46.2752 4.54522 46.5636 5.13849C46.8552 5.73177 47.0011 6.42614 47.0011 7.22159C47.0011 8.01042 46.8552 8.69981 46.5636 9.28977C46.2752 9.87973 45.8709 10.3388 45.3505 10.6669C44.8335 10.995 44.2302 11.1591 43.5408 11.1591ZM43.5408 10.1051C44.0645 10.1051 44.4954 9.97088 44.8335 9.70241C45.1715 9.43395 45.4218 9.08097 45.5842 8.64347C45.7466 8.20597 45.8278 7.73201 45.8278 7.22159C45.8278 6.71117 45.7466 6.23556 45.5842 5.79474C45.4218 5.35393 45.1715 4.99763 44.8335 4.72585C44.4954 4.45407 44.0645 4.31818 43.5408 4.31818C43.0172 4.31818 42.5863 4.45407 42.2482 4.72585C41.9102 4.99763 41.6599 5.35393 41.4975 5.79474C41.3351 6.23556 41.2539 6.71117 41.2539 7.22159C41.2539 7.73201 41.3351 8.20597 41.4975 8.64347C41.6599 9.08097 41.9102 9.43395 42.2482 9.70241C42.5863 9.97088 43.0172 10.1051 43.5408 10.1051ZM48.9764 11V3.36364H52.0985C52.9205 3.36364 53.5734 3.54924 54.0573 3.92045C54.5412 4.29167 54.7832 4.7822 54.7832 5.39205C54.7832 5.85606 54.6456 6.21567 54.3705 6.47088C54.0954 6.72277 53.7425 6.89347 53.3116 6.98295C53.5933 7.02273 53.8667 7.12216 54.1319 7.28125C54.4004 7.44034 54.6224 7.65909 54.7981 7.9375C54.9738 8.21259 55.0616 8.55066 55.0616 8.9517C55.0616 9.3428 54.9622 9.69247 54.7633 10.0007C54.5644 10.3089 54.2794 10.5526 53.9082 10.7315C53.537 10.9105 53.0928 11 52.5758 11H48.9764ZM50.09 9.92614H52.5758C52.9801 9.92614 53.2967 9.83002 53.5254 9.63778C53.7541 9.44555 53.8684 9.18371 53.8684 8.85227C53.8684 8.45786 53.7541 8.14796 53.5254 7.92259C53.2967 7.69389 52.9801 7.57955 52.5758 7.57955H50.09V9.92614ZM50.09 6.56534H52.0985C52.4134 6.56534 52.6835 6.52225 52.9089 6.43608C53.1343 6.34659 53.3066 6.22064 53.4259 6.05824C53.5486 5.89252 53.6099 5.69697 53.6099 5.47159C53.6099 5.15009 53.4756 4.8982 53.2072 4.71591C52.9387 4.5303 52.5692 4.4375 52.0985 4.4375H50.09V6.56534ZM60.1242 11.1591C59.4348 11.1591 58.83 10.995 58.3096 10.6669C57.7925 10.3388 57.3882 9.87973 57.0965 9.28977C56.8082 8.69981 56.664 8.01042 56.664 7.22159C56.664 6.42614 56.8082 5.73177 57.0965 5.13849C57.3882 4.54522 57.7925 4.08452 58.3096 3.75639C58.83 3.42827 59.4348 3.2642 60.1242 3.2642C60.8136 3.2642 61.4168 3.42827 61.9339 3.75639C62.4542 4.08452 62.8586 4.54522 63.147 5.13849C63.4386 5.73177 63.5845 6.42614 63.5845 7.22159C63.5845 8.01042 63.4386 8.69981 63.147 9.28977C62.8586 9.87973 62.4542 10.3388 61.9339 10.6669C61.4168 10.995 60.8136 11.1591 60.1242 11.1591ZM60.1242 10.1051C60.6479 10.1051 61.0788 9.97088 61.4168 9.70241C61.7549 9.43395 62.0051 9.08097 62.1676 8.64347C62.33 8.20597 62.4112 7.73201 62.4112 7.22159C62.4112 6.71117 62.33 6.23556 62.1676 5.79474C62.0051 5.35393 61.7549 4.99763 61.4168 4.72585C61.0788 4.45407 60.6479 4.31818 60.1242 4.31818C59.6006 4.31818 59.1697 4.45407 58.8316 4.72585C58.4935 4.99763 58.2433 5.35393 58.0809 5.79474C57.9185 6.23556 57.8373 6.71117 57.8373 7.22159C57.8373 7.73201 57.9185 8.20597 58.0809 8.64347C58.2433 9.08097 58.4935 9.43395 58.8316 9.70241C59.1697 9.97088 59.6006 10.1051 60.1242 10.1051ZM65.5597 11V3.36364H66.733V6.68466H67.5086L70.2529 3.36364H71.7643L68.6819 7.04261L71.8041 11H70.2927L67.787 7.77841H66.733V11H65.5597ZM80.4876 11.1591C79.7717 11.1591 79.1552 10.9901 78.6382 10.652C78.1211 10.3139 77.7234 9.84825 77.445 9.25497C77.1666 8.66169 77.0274 7.9839 77.0274 7.22159C77.0274 6.44602 77.1699 5.7616 77.4549 5.16832C77.7433 4.57173 78.1443 4.10606 78.658 3.77131C79.1751 3.43324 79.7783 3.2642 80.4677 3.2642C81.0046 3.2642 81.4885 3.36364 81.9194 3.5625C82.3503 3.76136 82.7033 4.03977 82.9784 4.39773C83.2534 4.75568 83.4241 5.1733 83.4904 5.65057H82.3171C82.2276 5.30256 82.0288 4.99432 81.7205 4.72585C81.4156 4.45407 81.0046 4.31818 80.4876 4.31818C80.0302 4.31818 79.6292 4.4375 79.2845 4.67614C78.9431 4.91146 78.6763 5.24455 78.484 5.67543C78.2951 6.10298 78.2007 6.60511 78.2007 7.18182C78.2007 7.77178 78.2935 8.28551 78.4791 8.72301C78.668 9.16051 78.9331 9.50024 79.2745 9.74219C79.6192 9.98414 80.0236 10.1051 80.4876 10.1051C80.7925 10.1051 81.0693 10.0521 81.3178 9.94602C81.5664 9.83996 81.7769 9.6875 81.9492 9.48864C82.1216 9.28977 82.2442 9.05114 82.3171 8.77273H83.4904C83.4241 9.22348 83.2601 9.6295 82.9982 9.99077C82.7397 10.3487 82.3967 10.6338 81.9691 10.8459C81.5449 11.0547 81.051 11.1591 80.4876 11.1591ZM90.103 3.36364V4.45739H86.5632V11H85.3899V3.36364H90.103ZM94.8052 11.1591C94.0694 11.1591 93.4347 10.9967 92.901 10.6719C92.3707 10.3438 91.9614 9.88636 91.6731 9.29972C91.388 8.70975 91.2455 8.02367 91.2455 7.24148C91.2455 6.45928 91.388 5.76989 91.6731 5.1733C91.9614 4.57339 92.3625 4.10606 92.8762 3.77131C93.3932 3.43324 93.9965 3.2642 94.6858 3.2642C95.0836 3.2642 95.4763 3.33049 95.8641 3.46307C96.2519 3.59564 96.6049 3.81108 96.9231 4.10938C97.2412 4.40436 97.4948 4.79545 97.6837 5.28267C97.8726 5.76989 97.9671 6.36979 97.9671 7.08239V7.57955H92.0807V6.56534H96.7739C96.7739 6.13447 96.6877 5.75 96.5154 5.41193C96.3464 5.07386 96.1044 4.80705 95.7895 4.61151C95.478 4.41596 95.1101 4.31818 94.6858 4.31818C94.2185 4.31818 93.8142 4.43419 93.4728 4.66619C93.1347 4.89489 92.8745 5.19318 92.6922 5.56108C92.5099 5.92898 92.4188 6.32339 92.4188 6.74432V7.42045C92.4188 7.99716 92.5182 8.48603 92.7171 8.88707C92.9193 9.2848 93.1993 9.58807 93.5573 9.79688C93.9152 10.0024 94.3312 10.1051 94.8052 10.1051C95.1134 10.1051 95.3918 10.062 95.6404 9.97585C95.8923 9.88636 96.1094 9.75379 96.2917 9.57812C96.474 9.39915 96.6148 9.17708 96.7143 8.91193L97.8478 9.23011C97.7285 9.61458 97.5279 9.95265 97.2462 10.2443C96.9645 10.5327 96.6165 10.758 96.2022 10.9205C95.7879 11.0795 95.3222 11.1591 94.8052 11.1591ZM105.047 6.64489V7.73864H100.831V6.64489H105.047ZM101.109 3.36364V11H99.9362V3.36364H101.109ZM105.942 3.36364V11H104.769V3.36364H105.942ZM111.471 11.1591C110.735 11.1591 110.1 10.9967 109.566 10.6719C109.036 10.3438 108.627 9.88636 108.338 9.29972C108.053 8.70975 107.911 8.02367 107.911 7.24148C107.911 6.45928 108.053 5.76989 108.338 5.1733C108.627 4.57339 109.028 4.10606 109.542 3.77131C110.059 3.43324 110.662 3.2642 111.351 3.2642C111.749 3.2642 112.142 3.33049 112.53 3.46307C112.917 3.59564 113.27 3.81108 113.588 4.10938C113.907 4.40436 114.16 4.79545 114.349 5.28267C114.538 5.76989 114.633 6.36979 114.633 7.08239V7.57955H108.746V6.56534H113.439C113.439 6.13447 113.353 5.75 113.181 5.41193C113.012 5.07386 112.77 4.80705 112.455 4.61151C112.143 4.41596 111.775 4.31818 111.351 4.31818C110.884 4.31818 110.48 4.43419 110.138 4.66619C109.8 4.89489 109.54 5.19318 109.358 5.56108C109.175 5.92898 109.084 6.32339 109.084 6.74432V7.42045C109.084 7.99716 109.184 8.48603 109.383 8.88707C109.585 9.2848 109.865 9.58807 110.223 9.79688C110.581 10.0024 110.997 10.1051 111.471 10.1051C111.779 10.1051 112.057 10.062 112.306 9.97585C112.558 9.88636 112.775 9.75379 112.957 9.57812C113.139 9.39915 113.28 9.17708 113.38 8.91193L114.513 9.23011C114.394 9.61458 114.193 9.95265 113.912 10.2443C113.63 10.5327 113.282 10.758 112.868 10.9205C112.453 11.0795 111.988 11.1591 111.471 11.1591ZM116.602 13.8636V3.36364H117.735V4.5767H117.874C117.96 4.44413 118.08 4.27509 118.232 4.0696C118.388 3.8608 118.61 3.67519 118.898 3.51278C119.19 3.34706 119.585 3.2642 120.082 3.2642C120.725 3.2642 121.291 3.42495 121.782 3.74645C122.273 4.06794 122.655 4.52367 122.93 5.11364C123.206 5.7036 123.343 6.39962 123.343 7.2017C123.343 8.01042 123.206 8.71141 122.93 9.30469C122.655 9.89465 122.274 10.352 121.787 10.6768C121.3 10.9983 120.738 11.1591 120.102 11.1591C119.611 11.1591 119.218 11.0779 118.923 10.9155C118.628 10.7498 118.401 10.5625 118.242 10.3537C118.083 10.1416 117.96 9.96591 117.874 9.8267H117.775V13.8636H116.602ZM117.755 7.18182C117.755 7.75852 117.84 8.26728 118.009 8.7081C118.178 9.1456 118.424 9.48864 118.749 9.73722C119.074 9.98248 119.472 10.1051 119.942 10.1051C120.433 10.1051 120.842 9.97585 121.17 9.71733C121.502 9.45549 121.75 9.10417 121.916 8.66335C122.085 8.21922 122.17 7.72538 122.17 7.18182C122.17 6.64489 122.087 6.16098 121.921 5.73011C121.759 5.29593 121.512 4.95289 121.18 4.70099C120.852 4.44579 120.44 4.31818 119.942 4.31818C119.465 4.31818 119.064 4.43916 118.739 4.68111C118.415 4.91974 118.169 5.2545 118.004 5.68537C117.838 6.11293 117.755 6.61174 117.755 7.18182ZM126.49 9.26989L130.169 3.36364H131.522V11H130.348V5.09375L126.689 11H125.317V3.36364H126.49V9.26989ZM133.855 13.8636V3.36364H134.988V4.5767H135.128C135.214 4.44413 135.333 4.27509 135.486 4.0696C135.641 3.8608 135.863 3.67519 136.152 3.51278C136.443 3.34706 136.838 3.2642 137.335 3.2642C137.978 3.2642 138.545 3.42495 139.035 3.74645C139.526 4.06794 139.909 4.52367 140.184 5.11364C140.459 5.7036 140.596 6.39962 140.596 7.2017C140.596 8.01042 140.459 8.71141 140.184 9.30469C139.909 9.89465 139.527 10.352 139.04 10.6768C138.553 10.9983 137.991 11.1591 137.355 11.1591C136.864 11.1591 136.472 11.0779 136.177 10.9155C135.882 10.7498 135.655 10.5625 135.496 10.3537C135.336 10.1416 135.214 9.96591 135.128 9.8267H135.028V13.8636H133.855ZM135.008 7.18182C135.008 7.75852 135.093 8.26728 135.262 8.7081C135.431 9.1456 135.678 9.48864 136.003 9.73722C136.327 9.98248 136.725 10.1051 137.196 10.1051C137.686 10.1051 138.096 9.97585 138.424 9.71733C138.755 9.45549 139.004 9.10417 139.17 8.66335C139.339 8.21922 139.423 7.72538 139.423 7.18182C139.423 6.64489 139.34 6.16098 139.174 5.73011C139.012 5.29593 138.765 4.95289 138.434 4.70099C138.106 4.44579 137.693 4.31818 137.196 4.31818C136.719 4.31818 136.317 4.43916 135.993 4.68111C135.668 4.91974 135.423 5.2545 135.257 5.68537C135.091 6.11293 135.008 6.61174 135.008 7.18182ZM145.673 11.1591C144.983 11.1591 144.378 10.995 143.858 10.6669C143.341 10.3388 142.937 9.87973 142.645 9.28977C142.357 8.69981 142.212 8.01042 142.212 7.22159C142.212 6.42614 142.357 5.73177 142.645 5.13849C142.937 4.54522 143.341 4.08452 143.858 3.75639C144.378 3.42827 144.983 3.2642 145.673 3.2642C146.362 3.2642 146.965 3.42827 147.482 3.75639C148.003 4.08452 148.407 4.54522 148.695 5.13849C148.987 5.73177 149.133 6.42614 149.133 7.22159C149.133 8.01042 148.987 8.69981 148.695 9.28977C148.407 9.87973 148.003 10.3388 147.482 10.6669C146.965 10.995 146.362 11.1591 145.673 11.1591ZM145.673 10.1051C146.196 10.1051 146.627 9.97088 146.965 9.70241C147.303 9.43395 147.554 9.08097 147.716 8.64347C147.878 8.20597 147.96 7.73201 147.96 7.22159C147.96 6.71117 147.878 6.23556 147.716 5.79474C147.554 5.35393 147.303 4.99763 146.965 4.72585C146.627 4.45407 146.196 4.31818 145.673 4.31818C145.149 4.31818 144.718 4.45407 144.38 4.72585C144.042 4.99763 143.792 5.35393 143.629 5.79474C143.467 6.23556 143.386 6.71117 143.386 7.22159C143.386 7.73201 143.467 8.20597 143.629 8.64347C143.792 9.08097 144.042 9.43395 144.38 9.70241C144.718 9.97088 145.149 10.1051 145.673 10.1051ZM151.108 11V3.36364H154.23C155.052 3.36364 155.705 3.54924 156.189 3.92045C156.673 4.29167 156.915 4.7822 156.915 5.39205C156.915 5.85606 156.777 6.21567 156.502 6.47088C156.227 6.72277 155.874 6.89347 155.443 6.98295C155.725 7.02273 155.999 7.12216 156.264 7.28125C156.532 7.44034 156.754 7.65909 156.93 7.9375C157.106 8.21259 157.193 8.55066 157.193 8.9517C157.193 9.3428 157.094 9.69247 156.895 10.0007C156.696 10.3089 156.411 10.5526 156.04 10.7315C155.669 10.9105 155.225 11 154.708 11H151.108ZM152.222 9.92614H154.708C155.112 9.92614 155.429 9.83002 155.657 9.63778C155.886 9.44555 156 9.18371 156 8.85227C156 8.45786 155.886 8.14796 155.657 7.92259C155.429 7.69389 155.112 7.57955 154.708 7.57955H152.222V9.92614ZM152.222 6.56534H154.23C154.545 6.56534 154.815 6.52225 155.041 6.43608C155.266 6.34659 155.438 6.22064 155.558 6.05824C155.68 5.89252 155.742 5.69697 155.742 5.47159C155.742 5.15009 155.607 4.8982 155.339 4.71591C155.071 4.5303 154.701 4.4375 154.23 4.4375H152.222V6.56534ZM161.401 11.179C160.917 11.179 160.478 11.0878 160.083 10.9055C159.689 10.7199 159.376 10.4531 159.144 10.1051C158.912 9.75379 158.796 9.32955 158.796 8.83239C158.796 8.39489 158.882 8.04025 159.054 7.76847C159.227 7.49337 159.457 7.27794 159.745 7.12216C160.034 6.96638 160.352 6.85038 160.7 6.77415C161.051 6.6946 161.404 6.63163 161.759 6.58523C162.223 6.52557 162.599 6.48082 162.887 6.45099C163.179 6.41785 163.391 6.36316 163.524 6.28693C163.66 6.2107 163.728 6.07812 163.728 5.8892V5.84943C163.728 5.3589 163.593 4.97775 163.325 4.70597C163.06 4.43419 162.657 4.2983 162.117 4.2983C161.557 4.2983 161.118 4.42093 160.799 4.66619C160.481 4.91146 160.257 5.1733 160.128 5.4517L159.015 5.05398C159.213 4.58996 159.479 4.22869 159.81 3.97017C160.145 3.70833 160.509 3.52604 160.904 3.4233C161.302 3.31723 161.693 3.2642 162.077 3.2642C162.322 3.2642 162.604 3.29403 162.922 3.35369C163.244 3.41004 163.554 3.5277 163.852 3.70668C164.154 3.88565 164.404 4.15578 164.603 4.51705C164.802 4.87831 164.901 5.36222 164.901 5.96875V11H163.728V9.96591H163.668C163.588 10.1316 163.456 10.3089 163.27 10.4979C163.085 10.6868 162.838 10.8475 162.529 10.9801C162.221 11.1127 161.845 11.179 161.401 11.179ZM161.58 10.125C162.044 10.125 162.435 10.0339 162.753 9.85156C163.075 9.66927 163.317 9.43395 163.479 9.1456C163.645 8.85724 163.728 8.55398 163.728 8.2358V7.16193C163.678 7.22159 163.569 7.27628 163.4 7.32599C163.234 7.3724 163.042 7.41383 162.823 7.45028C162.607 7.48343 162.397 7.51326 162.191 7.53977C161.989 7.56297 161.825 7.58286 161.699 7.59943C161.394 7.6392 161.109 7.70384 160.844 7.79332C160.582 7.8795 160.37 8.01042 160.208 8.18608C160.049 8.35843 159.969 8.59375 159.969 8.89205C159.969 9.29972 160.12 9.60795 160.422 9.81676C160.726 10.0223 161.113 10.125 161.58 10.125ZM172.338 6.64489V7.73864H168.122V6.64489H172.338ZM168.4 3.36364V11H167.227V3.36364H168.4ZM173.232 3.36364V11H172.059V3.36364H173.232ZM184.792 6.64489V7.73864H180.576V6.64489H184.792ZM180.855 3.36364V11H179.681V3.36364H180.855ZM185.687 3.36364V11H184.514V3.36364H185.687ZM191.216 11.1591C190.48 11.1591 189.845 10.9967 189.311 10.6719C188.781 10.3438 188.372 9.88636 188.084 9.29972C187.798 8.70975 187.656 8.02367 187.656 7.24148C187.656 6.45928 187.798 5.76989 188.084 5.1733C188.372 4.57339 188.773 4.10606 189.287 3.77131C189.804 3.43324 190.407 3.2642 191.096 3.2642C191.494 3.2642 191.887 3.33049 192.275 3.46307C192.662 3.59564 193.015 3.81108 193.334 4.10938C193.652 4.40436 193.905 4.79545 194.094 5.28267C194.283 5.76989 194.378 6.36979 194.378 7.08239V7.57955H188.491V6.56534H193.184C193.184 6.13447 193.098 5.75 192.926 5.41193C192.757 5.07386 192.515 4.80705 192.2 4.61151C191.888 4.41596 191.521 4.31818 191.096 4.31818C190.629 4.31818 190.225 4.43419 189.883 4.66619C189.545 4.89489 189.285 5.19318 189.103 5.56108C188.92 5.92898 188.829 6.32339 188.829 6.74432V7.42045C188.829 7.99716 188.929 8.48603 189.128 8.88707C189.33 9.2848 189.61 9.58807 189.968 9.79688C190.326 10.0024 190.742 10.1051 191.216 10.1051C191.524 10.1051 191.802 10.062 192.051 9.97585C192.303 9.88636 192.52 9.75379 192.702 9.57812C192.884 9.39915 193.025 9.17708 193.125 8.91193L194.258 9.23011C194.139 9.61458 193.938 9.95265 193.657 10.2443C193.375 10.5327 193.027 10.758 192.613 10.9205C192.198 11.0795 191.733 11.1591 191.216 11.1591ZM197.52 9.26989L201.199 3.36364H202.551V11H201.378V5.09375L197.719 11H196.347V3.36364H197.52V9.26989ZM200.423 0.818182H201.517C201.517 1.35511 201.331 1.79427 200.96 2.13565C200.589 2.47704 200.085 2.64773 199.449 2.64773C198.822 2.64773 198.324 2.47704 197.952 2.13565C197.585 1.79427 197.401 1.35511 197.401 0.818182H198.494C198.494 1.0767 198.566 1.30374 198.708 1.49929C198.854 1.69484 199.101 1.79261 199.449 1.79261C199.797 1.79261 200.045 1.69484 200.195 1.49929C200.347 1.30374 200.423 1.0767 200.423 0.818182ZM204.884 13.8636V3.36364H206.018V4.5767H206.157C206.243 4.44413 206.363 4.27509 206.515 4.0696C206.671 3.8608 206.893 3.67519 207.181 3.51278C207.473 3.34706 207.867 3.2642 208.365 3.2642C209.008 3.2642 209.574 3.42495 210.065 3.74645C210.555 4.06794 210.938 4.52367 211.213 5.11364C211.488 5.7036 211.626 6.39962 211.626 7.2017C211.626 8.01042 211.488 8.71141 211.213 9.30469C210.938 9.89465 210.557 10.352 210.07 10.6768C209.583 10.9983 209.021 11.1591 208.384 11.1591C207.894 11.1591 207.501 11.0779 207.206 10.9155C206.911 10.7498 206.684 10.5625 206.525 10.3537C206.366 10.1416 206.243 9.96591 206.157 9.8267H206.058V13.8636H204.884ZM206.038 7.18182C206.038 7.75852 206.122 8.26728 206.291 8.7081C206.46 9.1456 206.707 9.48864 207.032 9.73722C207.357 9.98248 207.755 10.1051 208.225 10.1051C208.716 10.1051 209.125 9.97585 209.453 9.71733C209.785 9.45549 210.033 9.10417 210.199 8.66335C210.368 8.21922 210.453 7.72538 210.453 7.18182C210.453 6.64489 210.37 6.16098 210.204 5.73011C210.042 5.29593 209.795 4.95289 209.463 4.70099C209.135 4.44579 208.722 4.31818 208.225 4.31818C207.748 4.31818 207.347 4.43916 207.022 4.68111C206.697 4.91974 206.452 5.2545 206.286 5.68537C206.121 6.11293 206.038 6.61174 206.038 7.18182ZM216.702 11.1591C216.013 11.1591 215.408 10.995 214.888 10.6669C214.371 10.3388 213.966 9.87973 213.674 9.28977C213.386 8.69981 213.242 8.01042 213.242 7.22159C213.242 6.42614 213.386 5.73177 213.674 5.13849C213.966 4.54522 214.371 4.08452 214.888 3.75639C215.408 3.42827 216.013 3.2642 216.702 3.2642C217.392 3.2642 217.995 3.42827 218.512 3.75639C219.032 4.08452 219.437 4.54522 219.725 5.13849C220.017 5.73177 220.162 6.42614 220.162 7.22159C220.162 8.01042 220.017 8.69981 219.725 9.28977C219.437 9.87973 219.032 10.3388 218.512 10.6669C217.995 10.995 217.392 11.1591 216.702 11.1591ZM216.702 10.1051C217.226 10.1051 217.657 9.97088 217.995 9.70241C218.333 9.43395 218.583 9.08097 218.746 8.64347C218.908 8.20597 218.989 7.73201 218.989 7.22159C218.989 6.71117 218.908 6.23556 218.746 5.79474C218.583 5.35393 218.333 4.99763 217.995 4.72585C217.657 4.45407 217.226 4.31818 216.702 4.31818C216.179 4.31818 215.748 4.45407 215.41 4.72585C215.072 4.99763 214.821 5.35393 214.659 5.79474C214.496 6.23556 214.415 6.71117 214.415 7.22159C214.415 7.73201 214.496 8.20597 214.659 8.64347C214.821 9.08097 215.072 9.43395 215.41 9.70241C215.748 9.97088 216.179 10.1051 216.702 10.1051ZM225.24 11.1591C224.524 11.1591 223.908 10.9901 223.391 10.652C222.874 10.3139 222.476 9.84825 222.197 9.25497C221.919 8.66169 221.78 7.9839 221.78 7.22159C221.78 6.44602 221.922 5.7616 222.207 5.16832C222.496 4.57173 222.897 4.10606 223.41 3.77131C223.927 3.43324 224.531 3.2642 225.22 3.2642C225.757 3.2642 226.241 3.36364 226.672 3.5625C227.103 3.76136 227.456 4.03977 227.731 4.39773C228.006 4.75568 228.177 5.1733 228.243 5.65057H227.07C226.98 5.30256 226.781 4.99432 226.473 4.72585C226.168 4.45407 225.757 4.31818 225.24 4.31818C224.783 4.31818 224.382 4.4375 224.037 4.67614C223.695 4.91146 223.429 5.24455 223.236 5.67543C223.048 6.10298 222.953 6.60511 222.953 7.18182C222.953 7.77178 223.046 8.28551 223.231 8.72301C223.42 9.16051 223.686 9.50024 224.027 9.74219C224.372 9.98414 224.776 10.1051 225.24 10.1051C225.545 10.1051 225.822 10.0521 226.07 9.94602C226.319 9.83996 226.529 9.6875 226.702 9.48864C226.874 9.28977 226.997 9.05114 227.07 8.77273H228.243C228.177 9.22348 228.012 9.6295 227.751 9.99077C227.492 10.3487 227.149 10.6338 226.722 10.8459C226.297 11.0547 225.803 11.1591 225.24 11.1591ZM233.344 11.1591C232.608 11.1591 231.974 10.9967 231.44 10.6719C230.91 10.3438 230.5 9.88636 230.212 9.29972C229.927 8.70975 229.784 8.02367 229.784 7.24148C229.784 6.45928 229.927 5.76989 230.212 5.1733C230.5 4.57339 230.901 4.10606 231.415 3.77131C231.932 3.43324 232.535 3.2642 233.225 3.2642C233.622 3.2642 234.015 3.33049 234.403 3.46307C234.791 3.59564 235.144 3.81108 235.462 4.10938C235.78 4.40436 236.034 4.79545 236.223 5.28267C236.411 5.76989 236.506 6.36979 236.506 7.08239V7.57955H230.62V6.56534H235.313C235.313 6.13447 235.227 5.75 235.054 5.41193C234.885 5.07386 234.643 4.80705 234.328 4.61151C234.017 4.41596 233.649 4.31818 233.225 4.31818C232.757 4.31818 232.353 4.43419 232.012 4.66619C231.674 4.89489 231.413 5.19318 231.231 5.56108C231.049 5.92898 230.958 6.32339 230.958 6.74432V7.42045C230.958 7.99716 231.057 8.48603 231.256 8.88707C231.458 9.2848 231.738 9.58807 232.096 9.79688C232.454 10.0024 232.87 10.1051 233.344 10.1051C233.652 10.1051 233.931 10.062 234.179 9.97585C234.431 9.88636 234.648 9.75379 234.831 9.57812C235.013 9.39915 235.154 9.17708 235.253 8.91193L236.387 9.23011C236.267 9.61458 236.067 9.95265 235.785 10.2443C235.503 10.5327 235.155 10.758 234.741 10.9205C234.327 11.0795 233.861 11.1591 233.344 11.1591ZM237.764 4.45739V3.36364H243.969V4.45739H241.463V11H240.29V4.45739H237.764ZM246.879 6.12784H249.066C249.961 6.12784 250.645 6.35488 251.119 6.80895C251.593 7.26302 251.83 7.83807 251.83 8.53409C251.83 8.99148 251.724 9.40743 251.512 9.78196C251.3 10.1532 250.988 10.4498 250.577 10.6719C250.166 10.8906 249.663 11 249.066 11H245.864V3.36364H247.038V9.90625H249.066C249.53 9.90625 249.911 9.78362 250.21 9.53835C250.508 9.29309 250.657 8.97822 250.657 8.59375C250.657 8.18939 250.508 7.85961 250.21 7.6044C249.911 7.34919 249.53 7.22159 249.066 7.22159H246.879V6.12784ZM257.46 6.70455V7.7983H253.423V6.70455H257.46ZM254.417 3.36364V11H253.244V3.36364H254.417ZM259.806 11.1591C259.117 11.1591 258.512 10.995 257.992 10.6669C257.475 10.3388 257.07 9.87973 256.779 9.28977C256.49 8.69981 256.346 8.01042 256.346 7.22159C256.346 6.42614 256.49 5.73177 256.779 5.13849C257.07 4.54522 257.475 4.08452 257.992 3.75639C258.512 3.42827 259.117 3.2642 259.806 3.2642C260.496 3.2642 261.099 3.42827 261.616 3.75639C262.136 4.08452 262.541 4.54522 262.829 5.13849C263.121 5.73177 263.266 6.42614 263.266 7.22159C263.266 8.01042 263.121 8.69981 262.829 9.28977C262.541 9.87973 262.136 10.3388 261.616 10.6669C261.099 10.995 260.496 11.1591 259.806 11.1591ZM259.806 10.1051C260.33 10.1051 260.761 9.97088 261.099 9.70241C261.437 9.43395 261.687 9.08097 261.85 8.64347C262.012 8.20597 262.093 7.73201 262.093 7.22159C262.093 6.71117 262.012 6.23556 261.85 5.79474C261.687 5.35393 261.437 4.99763 261.099 4.72585C260.761 4.45407 260.33 4.31818 259.806 4.31818C259.283 4.31818 258.852 4.45407 258.514 4.72585C258.176 4.99763 257.925 5.35393 257.763 5.79474C257.601 6.23556 257.519 6.71117 257.519 7.22159C257.519 7.73201 257.601 8.20597 257.763 8.64347C257.925 9.08097 258.176 9.43395 258.514 9.70241C258.852 9.97088 259.283 10.1051 259.806 10.1051Z" fill="url(#paint0_linear_880_28303)"/>
<defs>
<linearGradient id="paint0_linear_880_28303" x1="287.748" y1="6.49997" x2="-10.0608" y2="-6.79638" gradientUnits="userSpaceOnUse">
<stop offset="0.140131" stop-color="#BC55CD"/>
<stop offset="1" stop-color="#6659DF"/>
</linearGradient>
</defs>
</svg>
