<svg width="1389" height="1297" viewBox="0 0 1389 1297" fill="none" xmlns="http://www.w3.org/2000/svg">
<path d="M57.6747 825.609L140.859 724.11L288.971 585.159L348.865 541.832C357.259 535.759 364.727 528.5 371.034 520.281L404.363 476.853C410.323 469.087 415.189 460.539 418.826 451.449L468.918 326.216L468.921 326.211L523.143 190.313C526.887 180.928 532.907 172.622 540.659 166.142L561.833 148.445C574.318 138.009 578.595 120.682 572.399 105.635C571.241 102.822 570.645 99.8098 570.645 96.7678V70.4737C570.645 58.377 575.818 46.8577 584.859 38.8211C591.042 33.3256 598.698 29.761 606.883 28.5673L613.387 27.6188C622.618 26.2726 632.035 27.108 640.885 30.0578L648.048 32.4455C649.392 32.8934 650.655 33.5551 651.788 34.4051L659.326 40.0585C666.954 45.7796 677.755 44.3602 683.646 36.8626C684.098 36.2874 684.717 35.8663 685.418 35.6568L740.078 19.3214C745.555 17.6848 751.17 16.5566 756.854 15.9509L829.961 8.16081C836.922 7.41905 843.945 7.46565 850.896 8.29974L993.502 25.4125C1004.99 26.791 1016.12 30.3012 1026.32 35.7628L1107.11 79.0232L1107.12 79.026L1263.43 162.541L1263.56 162.614L1327.87 198.787C1340.97 206.159 1352.09 216.597 1360.28 229.208L1363.25 233.789C1370.6 245.114 1375.4 257.905 1377.31 271.272L1380.34 292.463C1381.28 299.06 1381.51 305.739 1381.02 312.386L1375.5 388.127C1374.66 399.541 1371.73 410.704 1366.85 421.053L1335.05 488.407C1331.65 495.611 1327.34 502.349 1322.22 508.454L1293.98 542.154C1289.54 547.444 1284.53 552.224 1279.04 556.405L1236.45 588.834C1227.03 596.005 1215.79 600.389 1204 601.489C1178.25 603.892 1155.41 619.018 1143.15 641.787L1127.78 670.347C1124.68 676.096 1122.12 682.116 1120.12 688.333L1112.39 712.388C1110.07 719.612 1108.52 727.063 1107.77 734.615L1102.7 785.987L1102.69 786.114L1094.71 854.122C1090.17 892.765 1062.06 924.501 1024.25 933.668L745.226 1001.31C740.51 1002.45 735.712 1003.23 730.875 1003.62L531.777 1019.86C525.996 1020.33 520.183 1020.26 514.415 1019.65L357.517 1003.02L209.216 979.146C203.821 978.277 198.513 976.935 193.353 975.134L96.1945 941.227C90.8542 939.363 85.7359 936.916 80.9322 933.93L78.2045 932.234C41.5787 909.467 32.1336 860.328 57.6747 825.609Z" fill="#D37D4F" stroke="black" stroke-width="14"/>
<path d="M812.508 143.751L829.438 117.629C833.143 111.911 838.744 107.68 845.258 105.679L870.842 97.8205C876.62 96.0455 882.809 96.1205 888.542 98.0349L931.889 112.508C935.041 113.561 938.004 115.166 940.612 117.226V117.226C948.814 123.705 952.881 134.196 951.116 144.498V144.498C950.428 148.515 948.887 152.339 946.598 155.711L944.029 159.496C939.341 166.402 931.904 170.954 923.621 171.986L900.048 174.924H859.627L836.491 178.018C817.558 180.55 803.646 160.673 812.508 143.751V143.751Z" fill="black" fill-opacity="0.3"/>
<path d="M585.016 68.3237C585.568 60.4847 589.497 53.2719 595.784 48.5568V48.5568C597.357 47.3773 599.09 46.4281 600.93 45.7378L604.437 44.4229C612.37 41.448 620.962 40.6823 629.296 42.2074L633.322 42.9442L638.575 44.5432C641.761 45.5128 644.726 47.0965 647.303 49.2051V49.2051C650.286 51.6456 653.783 53.3786 657.531 54.2742L663.193 55.6268C675.88 58.658 686.918 66.4461 694.027 77.3825L699.332 85.5435C709.04 100.478 711.308 119.058 705.479 135.889V135.889C693.73 169.808 654.197 184.888 622.842 167.411L607.698 158.969C594.971 151.875 587.805 137.783 589.569 123.32V123.32C590.174 118.359 589.735 113.326 588.279 108.545L587.159 104.862C585.804 100.412 585.03 95.8047 584.855 91.1557L584.352 77.752L585.016 68.3237Z" fill="#B1854E" fill-opacity="0.4"/>
<path d="M1156.02 130.28C1153.87 121.728 1163.04 114.784 1170.69 119.168L1279.9 181.747L1341.69 214.461C1343.87 215.617 1345.55 217.538 1346.4 219.857L1369.73 283.476C1370.16 284.664 1370.37 285.923 1370.34 287.188L1368.85 342.191L1370.31 380.602C1370.36 381.87 1370.17 383.137 1369.74 384.333L1331.27 492.48C1330.77 493.894 1329.96 495.176 1328.89 496.232L1246.03 578.355C1245.1 579.275 1244 580.005 1242.79 580.502L1176.35 607.79C1168.89 610.852 1161.07 604.29 1162.78 596.416L1213.45 363.279C1213.78 361.774 1213.75 360.214 1213.38 358.72L1156.02 130.28Z" fill="#202020" fill-opacity="0.3"/>
<path d="M1291.42 283.894L1290.83 274.381L1290.6 270.76L1287.3 272.261L1279.35 275.872H1232.17L1217.59 268.58L1207.64 260.765L1204.05 249.974L1203.48 248.264H1201.68H1191.14V243.73L1227.1 221.714L1245.06 218.84L1275.49 232.201L1290.36 244.845L1295.8 251.641V277.605C1295.8 280.49 1293.98 282.949 1291.42 283.894Z" fill="#522515" stroke="black" stroke-width="5"/>
<path d="M1321.51 260.635L1325.32 263.726L1328.64 266.419H1349.78L1356.15 260.737L1360.77 254.263L1362.5 245.054L1362.88 243.013H1364.95H1368.65V239.333L1351.92 221.066L1344.71 219.009L1331.08 229.676L1324.12 240.219L1321.51 246.048V260.635Z" fill="#522515" stroke="black" stroke-width="5"/>
<path d="M832.046 149.538L839.715 143.404L849.684 141.87L866.528 136.502L891.861 134.201H940.174L942.474 141.87L911.033 175.449L899.53 197.084H894.162L888.027 174.078L876.734 175.449L869.491 177.536H866.528L821.31 174.845L814.408 168.71L820.543 152.606L832.046 149.538Z" fill="#291416"/>
<path d="M892.629 134.968H918.165L926.677 138.332V149.98L918.165 157.044L897.537 162.342V162.342C895.594 163.508 893.122 162.109 893.122 159.843V156.161L895.771 148.214L892.629 134.968Z" fill="white"/>
<path d="M1219.31 506.13L1276.06 486.958L1295.23 494.627L1299.84 479.29L1319.77 449.382L1331.28 479.29L1269.93 553.675L1219.31 587.417H1196.31L1208.58 559.043L1219.31 506.13Z" fill="#6F442D"/>
<path d="M913.193 175.708C909.293 181.07 906.607 187.213 905.318 193.711L896.828 202.973H889.831V189.062L892.375 180.583L893.34 177.364H889.98H870.553H826.9L816.919 173.206L807.707 167.832V153.449L815.013 145.332L815.256 145.062L815.412 144.734L824.135 126.415L836.86 109.448L852.717 101.937L887.401 97.6018L910.44 99.1907V103.165L908.07 106.72H870.553H870.245L869.945 106.795L843.709 113.371L842.772 113.606L842.237 114.41L830.734 131.676L829.529 133.484L831.151 134.929L837.1 140.228L838.144 141.157L839.482 140.755L848.312 138.106L848.419 138.074L848.522 138.033L865.736 131.147H934.552L944.819 135.096L947.785 139.843L930.583 158.683L914.755 173.632L914.587 173.791L914.45 173.979L913.193 175.708Z" stroke="black" stroke-width="5"/>
<path d="M1303.34 304.497L1302.14 393.96L1281.53 483.704L1246.72 507.903L1240.97 507.985L1236.77 499.636L1227.56 489.829L1223.78 503.644L1215.85 506.052L1223.57 519.702L1208.43 523.742L1218.41 528.95L1198.35 578.167L1183.28 630.37L1162.64 561.859L1144.16 679.442L1136.49 608.89L1106.46 572.603L1085.03 562.971L1063.58 608.385L1050.31 580.288L1028.37 608.89" stroke="black" stroke-width="10"/>
<path d="M1282.2 480.057L1296 498.462L1301.37 476.224L1317.47 442.48L1327.44 470.855L1340.43 476.224" stroke="black" stroke-width="6"/>
<path d="M815.177 142.637L826.68 134.968L838.95 142.637L854.287 141.103L842.017 147.238L825.146 151.839L816.711 167.943L812.876 165.643V159.508L812.109 152.606L815.177 142.637Z" fill="black"/>
<path d="M588.185 118.097L592.82 80.2016C595.702 56.6424 626.353 49.4059 639.468 69.1882V69.1882C642.371 73.5676 646.554 76.9451 651.447 78.8605L657.944 81.4038" stroke="black" stroke-width="3" stroke-linecap="round"/>
<path d="M648.324 88.1894C655.992 105.06 631.22 133.405 618.091 133.405C604.961 133.405 588.185 117.33 593.553 95.858C595.939 75.1527 596.618 62.8829 617.324 59.8154C630.453 59.8154 635.73 64.9643 648.324 88.1894Z" fill="#B05A31"/>
<path d="M650.626 100.389L648.91 99.7528C635.553 94.8014 624.686 84.7865 618.662 71.8782V71.8782C618.1 70.6746 616.416 70.6022 615.753 71.7532L609.79 82.1084C605.382 89.7622 604.996 99.088 608.757 107.08L615.025 120.398" stroke="black" stroke-width="3"/>
<path d="M578.543 166.438C578.156 165.806 578.15 165.012 578.527 164.374L613.928 104.474C614.684 103.196 616.52 103.158 617.328 104.404L623.309 113.625C624.383 115.281 626.952 114.545 626.986 112.572L627.188 101.161C627.22 99.3215 629.51 98.4979 630.706 99.895L641.168 112.108C642.565 113.738 645.199 112.322 644.611 110.258L640.749 96.7111C640.228 94.8839 642.309 93.4282 643.847 94.544L651.718 100.256C652.255 100.645 652.949 100.743 653.573 100.518L725.422 74.5458C726.315 74.2232 727.311 74.5721 727.807 75.3809L762.06 131.223C762.637 132.165 762.342 133.396 761.401 133.974L615.769 223.301C614.827 223.879 613.596 223.584 613.018 222.642L578.543 166.438Z" fill="#D37D4F"/>
<path d="M364.499 537.5L409.999 477L437.5 423.5L539.701 577.707C591.667 656.117 681.792 700.514 775.627 693.929V693.929L1047.5 918.5L1027.5 926.5L1006.5 931L985.5 936L957 943L881.5 962.5L737.5 996.5L519.821 1014.16C517.117 1014.38 514.399 1014.35 511.701 1014.07L348.611 997.064L195.018 972.541L94.3439 935.111L72.6863 924.901C58.3297 918.133 49.169 903.687 49.1691 887.815L49.1693 858.959L56.0001 834.5L142.999 729.5L292.999 589L364.499 537.5Z" fill="#252726"/>
<path d="M785.27 687.11L923.224 708.892C947.78 712.769 972.602 714.717 997.462 714.717H1104.5L1099 755L1095.5 793L1087.5 855L1086 864L1083.5 872.5L1076.5 890.5L1065 902.5L1055.5 912L1044 918L785.27 687.11Z" fill="#F9F9F9"/>
<g filter="url(#filter0_d_2514_1649)">
<path d="M439.482 425.285L529.136 543.707L693.245 649.534L441.714 708.582L404.904 498.462L439.482 425.285Z" fill="#2A2B2D"/>
<path d="M439.681 427.204L528.339 544.31L528.446 544.451L528.594 544.547L690.725 649.098L442.516 707.367L405.944 498.602L439.681 427.204Z" stroke="#464A4B" stroke-width="2"/>
</g>
<g filter="url(#filter1_d_2514_1649)">
<path d="M643.398 617.326L781.433 683.276L1040.3 913.169L691.71 870.391L554.441 683.276L643.398 617.326Z" fill="#2A2B2D"/>
<path d="M555.836 683.487L643.51 618.487L780.875 684.117L1037.24 911.785L692.261 869.451L555.836 683.487Z" stroke="#464A4B" stroke-width="2"/>
</g>
<path d="M1037.47 764.718L1037.47 764.775L1037.47 764.832L1038.33 776.072C1039.06 785.747 1030.83 793.712 1021.19 792.657L974.565 787.554C970.731 787.134 967.191 785.3 964.637 782.41L937.36 751.54C936.529 750.6 935.606 749.748 934.603 748.995L887.368 713.533C883.656 710.747 881.792 706.134 882.526 701.551C883.498 695.483 888.733 691.019 894.878 691.019L1001.95 691.02C1006.97 691.02 1011.68 693.452 1014.59 697.546L1034.61 725.735C1036.47 728.357 1037.47 731.494 1037.47 734.71L1037.47 764.718Z" fill="#A04528" stroke="#5C3619" stroke-width="3"/>
<path d="M996.308 862.31L996.276 862.246L996.239 862.186L977.931 832.615C976.498 830.3 975.7 827.647 975.617 824.925L974.772 797.035C974.737 795.872 974.426 794.735 973.865 793.716C972.272 790.822 974.365 787.28 977.668 787.28L1014.06 787.28C1019.22 787.28 1024.04 789.848 1026.92 794.129L1058.95 841.756C1061.12 844.985 1062 848.913 1061.41 852.76L1057.79 876.34C1057.55 877.872 1057.09 879.36 1056.41 880.755L1048.41 897.243C1045.6 903.033 1039.5 906.484 1033.09 905.913L1025.87 905.27C1020.5 904.791 1015.76 901.55 1013.36 896.715L996.308 862.31Z" fill="#A04528" stroke="#5C3619" stroke-width="3"/>
<defs>
<filter id="filter0_d_2514_1649" x="383.904" y="425.285" width="309.342" height="306.297" filterUnits="userSpaceOnUse" color-interpolation-filters="sRGB">
<feFlood flood-opacity="0" result="BackgroundImageFix"/>
<feColorMatrix in="SourceAlpha" type="matrix" values="0 0 0 0 0 0 0 0 0 0 0 0 0 0 0 0 0 0 127 0" result="hardAlpha"/>
<feOffset dx="-14" dy="16"/>
<feGaussianBlur stdDeviation="3.5"/>
<feComposite in2="hardAlpha" operator="out"/>
<feColorMatrix type="matrix" values="0 0 0 0 0 0 0 0 0 0 0 0 0 0 0 0 0 0 0.75 0"/>
<feBlend mode="normal" in2="BackgroundImageFix" result="effect1_dropShadow_2514_1649"/>
<feBlend mode="normal" in="SourceGraphic" in2="effect1_dropShadow_2514_1649" result="shape"/>
</filter>
<filter id="filter1_d_2514_1649" x="533.441" y="617.326" width="506.859" height="318.843" filterUnits="userSpaceOnUse" color-interpolation-filters="sRGB">
<feFlood flood-opacity="0" result="BackgroundImageFix"/>
<feColorMatrix in="SourceAlpha" type="matrix" values="0 0 0 0 0 0 0 0 0 0 0 0 0 0 0 0 0 0 127 0" result="hardAlpha"/>
<feOffset dx="-14" dy="16"/>
<feGaussianBlur stdDeviation="3.5"/>
<feComposite in2="hardAlpha" operator="out"/>
<feColorMatrix type="matrix" values="0 0 0 0 0 0 0 0 0 0 0 0 0 0 0 0 0 0 0.75 0"/>
<feBlend mode="normal" in2="BackgroundImageFix" result="effect1_dropShadow_2514_1649"/>
<feBlend mode="normal" in="SourceGraphic" in2="effect1_dropShadow_2514_1649" result="shape"/>
</filter>
</defs>
</svg>
