<svg width="42" height="52" viewBox="0 0 42 52" fill="none" xmlns="http://www.w3.org/2000/svg">
<path fill-rule="evenodd" clip-rule="evenodd" d="M10.5547 16.8335H21.4449C22.003 16.8335 22.4637 16.8335 22.8409 16.8592C23.232 16.8859 23.5937 16.943 23.9419 17.0872C24.7586 17.4255 25.4075 18.0744 25.7458 18.8912C25.89 19.2393 25.9471 19.6011 25.9738 19.9921C26.0067 20.4732 25.9995 20.9569 25.9995 21.4388C25.9996 21.6138 25.9996 21.7843 25.9897 21.9294C25.9789 22.088 25.9535 22.2761 25.8727 22.4712C25.7035 22.8795 25.3791 23.204 24.9707 23.3731C24.7681 23.4571 24.5506 23.4866 24.3329 23.4952V30.3676C24.3329 31.0384 24.3329 31.592 24.2961 32.043C24.2578 32.5114 24.1757 32.942 23.9696 33.3464C23.65 33.9736 23.1401 34.4835 22.5129 34.8031C22.1085 35.0092 21.6779 35.0913 21.2095 35.1296C20.7585 35.1664 20.2049 35.1664 19.5341 35.1664H12.4654C11.7946 35.1664 11.241 35.1664 10.79 35.1296C10.3216 35.0913 9.89106 35.0092 9.48662 34.8031C8.85943 34.4835 8.34951 33.9736 8.02994 33.3464C7.82386 32.942 7.74173 32.5114 7.70346 32.043C7.66661 31.592 7.66662 31.0384 7.66663 30.3676V23.4952C7.44898 23.4866 7.23147 23.4571 7.02884 23.3731C6.62047 23.204 6.29602 22.8795 6.12687 22.4712C6.04608 22.2761 6.02069 22.088 6.00987 21.9294C5.99997 21.7843 5.99998 21.6138 6 21.4388C6.00006 20.8638 5.99921 20.3807 6.02572 19.9921C6.05241 19.6011 6.10951 19.2393 6.25373 18.8912C6.59204 18.0744 7.24094 17.4255 8.05768 17.0872C8.40585 16.943 8.76759 16.8859 9.15865 16.8592C9.53581 16.8335 9.99653 16.8335 10.5547 16.8335ZM8.06907 21.8334C7.86317 21.8334 7.74655 21.8324 7.67341 21.8266C7.66753 21.7518 7.66663 21.6318 7.66663 21.4167C7.66663 20.8229 7.66708 20.4193 7.68849 20.1056C7.70938 19.7994 7.74742 19.6402 7.7935 19.529C7.96265 19.1206 8.2871 18.7961 8.69547 18.627C8.80672 18.5809 8.96589 18.5429 9.2721 18.522C9.58579 18.5006 9.98942 18.5001 10.5832 18.5001H21.4163C22.0101 18.5001 22.4138 18.5006 22.7274 18.522C23.0337 18.5429 23.1928 18.5809 23.3041 18.627C23.7125 18.7961 24.0369 19.1206 24.2061 19.529C24.2521 19.6402 24.2902 19.7994 24.3111 20.1056C24.3325 20.4193 24.3329 20.8229 24.3329 21.4167C24.3329 21.6318 24.332 21.7518 24.3261 21.8266C24.253 21.8323 24.1364 21.8334 23.9305 21.8334H8.06907ZM9.33326 23.5V30.3332C9.33326 31.047 9.33391 31.5322 9.36455 31.9073C9.3944 32.2726 9.44851 32.4595 9.51491 32.5898C9.6747 32.9034 9.92966 33.1583 10.2433 33.3181C10.3736 33.3845 10.5604 33.4386 10.9258 33.4685C11.3008 33.4991 11.7861 33.4998 12.4999 33.4998H19.4997C20.2135 33.4998 20.6987 33.4991 21.0738 33.4685C21.4391 33.4386 21.626 33.3845 21.7563 33.3181C22.0699 33.1583 22.3249 32.9034 22.4846 32.5898C22.551 32.4595 22.6051 32.2726 22.635 31.9073C22.6656 31.5322 22.6663 31.047 22.6663 30.3332V23.5H9.33326ZM12.6665 26.8333C12.6665 26.373 13.0396 26 13.4998 26H18.4997C18.9599 26 19.333 26.373 19.333 26.8333C19.333 27.2935 18.9599 27.6666 18.4997 27.6666H13.4998C13.0396 27.6666 12.6665 27.2935 12.6665 26.8333Z" fill="#0047FF"/>
</svg>
