<svg width="17" height="18" viewBox="0 0 17 18" fill="none" xmlns="http://www.w3.org/2000/svg">
<path fill-rule="evenodd" clip-rule="evenodd" d="M6.88102 1.28616C7.76602 0.370759 9.23398 0.370758 10.119 1.28616L10.7799 1.96978C10.9403 2.1357 11.1682 2.2186 11.3978 2.19455L12.3437 2.09545C13.6104 1.96276 14.735 2.90581 14.8242 4.1756L14.8908 5.12387C14.907 5.35402 15.0282 5.56392 15.2196 5.69299L16.0079 6.22479C17.0636 6.9369 17.3185 8.38173 16.5702 9.41175L16.0114 10.181C15.8757 10.3677 15.8336 10.6064 15.8972 10.8282L16.1591 11.742C16.5098 12.9657 15.7758 14.2363 14.5401 14.5446L13.6173 14.7748C13.3933 14.8307 13.2075 14.9865 13.1136 15.1972L12.7265 16.0655C12.2081 17.2283 10.8287 17.73 9.68377 17.1724L8.82877 16.7559C8.62126 16.6548 8.37874 16.6548 8.17123 16.7559L7.31623 17.1724C6.17133 17.73 4.7919 17.2283 4.27353 16.0655L3.88642 15.1972C3.79247 14.9865 3.60669 14.8307 3.38271 14.7748L2.45989 14.5446C1.22417 14.2363 0.490197 12.9657 0.840907 11.742L1.10281 10.8282C1.16638 10.6064 1.12427 10.3677 0.988633 10.181L0.429787 9.41175C-0.318542 8.38173 -0.0636345 6.9369 0.992054 6.22479L1.78043 5.69299C1.97178 5.56392 2.09304 5.35402 2.10921 5.12387L2.17583 4.1756C2.26504 2.90581 3.38955 1.96276 4.65625 2.09545L5.60221 2.19455C5.8318 2.2186 6.05969 2.1357 6.2201 1.96978L6.88102 1.28616ZM9.03966 2.32846C8.74466 2.02333 8.25534 2.02333 7.96034 2.32846L7.29942 3.01208C6.8182 3.50983 6.13453 3.75852 5.44576 3.68637L4.4998 3.58728C4.07757 3.54305 3.70273 3.8574 3.67299 4.28066L3.60637 5.22893C3.55786 5.91938 3.19409 6.5491 2.62006 6.93631L1.83168 7.4681C1.47978 7.70547 1.39481 8.18708 1.64425 8.53043L2.2031 9.29964C2.61001 9.85972 2.73634 10.5758 2.54564 11.2412L2.28374 12.1551C2.16683 12.563 2.41149 12.9865 2.8234 13.0892L3.74622 13.3195C4.41814 13.4871 4.97548 13.9545 5.25734 14.5867L5.64445 15.455C5.81724 15.8426 6.27705 16.0099 6.65869 15.824L7.51369 15.4075C8.13623 15.1043 8.86377 15.1043 9.48631 15.4075L10.3413 15.824C10.7229 16.0099 11.1828 15.8426 11.3555 15.455L11.7427 14.5867C12.0245 13.9545 12.5819 13.4871 13.2538 13.3195L14.1766 13.0892C14.5885 12.9865 14.8332 12.563 14.7163 12.155L14.4544 11.2412C14.2637 10.5758 14.39 9.85972 14.7969 9.29964L15.3557 8.53043C15.6052 8.18708 15.5202 7.70547 15.1683 7.4681L14.3799 6.93631C13.8059 6.5491 13.4421 5.91938 13.3936 5.22893L13.327 4.28066C13.2973 3.8574 12.9224 3.54305 12.5002 3.58728L11.5542 3.68637C10.8655 3.75852 10.1818 3.50983 9.70058 3.01208L9.03966 2.32846Z" fill="#6A4CFF"/>
<path fill-rule="evenodd" clip-rule="evenodd" d="M11.5017 9.19092C11.5017 9.60513 11.1657 9.94092 10.7513 9.94092H6.24872C5.83427 9.94092 5.4983 9.60513 5.4983 9.19092C5.4983 8.7767 5.83427 8.44092 6.24872 8.44092L10.7513 8.44092C11.1657 8.44092 11.5017 8.7767 11.5017 9.19092Z" fill="#6A4CFF"/>
<path fill-rule="evenodd" clip-rule="evenodd" d="M8.5 12.1909C8.08555 12.1909 7.74957 11.8551 7.74957 11.4409L7.74957 6.94092C7.74957 6.5267 8.08555 6.19092 8.5 6.19092C8.91445 6.19092 9.25043 6.5267 9.25043 6.94092V11.4409C9.25043 11.8551 8.91445 12.1909 8.5 12.1909Z" fill="#6A4CFF"/>
</svg>
