<svg width="16" height="16" viewBox="0 0 16 16" fill="none" xmlns="http://www.w3.org/2000/svg">
<path fill-rule="evenodd" clip-rule="evenodd" d="M10 8C10 9.10457 9.10457 10 8 10C6.89543 10 6 9.10457 6 8C6 6.89543 6.89543 6 8 6C9.10457 6 10 6.89543 10 8ZM9 8C9 8.55229 8.55229 9 8 9C7.44772 9 7 8.55229 7 8C7 7.44772 7.44772 7 8 7C8.55229 7 9 7.44772 9 8Z" fill="#818C99"/>
<path fill-rule="evenodd" clip-rule="evenodd" d="M14 8C14 10.3333 10.6667 12 8 12C5.33333 12 2 10.3333 2 8C2 5.66667 5.33333 4 8 4C10.6667 4 14 5.66667 14 8ZM13 8C13 8.65513 12.5204 9.38918 11.481 10.0202C10.4703 10.6339 9.14967 11 8 11C6.85033 11 5.52975 10.6339 4.51898 10.0202C3.47963 9.38918 3 8.65513 3 8C3 7.34487 3.47963 6.61082 4.51898 5.97979C5.52975 5.36611 6.85033 5 8 5C9.14967 5 10.4703 5.36611 11.481 5.97979C12.5204 6.61082 13 7.34487 13 8Z" fill="#818C99"/>
</svg>
